<svg width="134" height="64" viewBox="0 0 134 64" fill="none" xmlns="http://www.w3.org/2000/svg">
<path d="M4.375 20.85C4.55833 20.8167 4.85 20.775 5.25 20.725C5.65 20.6584 6.03333 20.625 6.4 20.625C6.78333 20.625 7.11667 20.6584 7.4 20.725C7.7 20.775 7.95 20.875 8.15 21.025C8.35 21.175 8.5 21.3834 8.6 21.65C8.7 21.9167 8.75 22.2667 8.75 22.7V31.95C8.75 33.4334 8.325 34.55 7.475 35.3C6.625 36.0334 5.375 36.4 3.725 36.4C2.85833 36.4 2.15833 36.2667 1.625 36C1.24167 35.8167 0.958333 35.5667 0.775 35.25C0.608333 34.9334 0.525 34.575 0.525 34.175C0.525 33.8417 0.566667 33.55 0.65 33.3C0.75 33.05 0.866667 32.85 1 32.7C1.31667 32.7667 1.58333 32.8167 1.8 32.85C2.03333 32.8667 2.28333 32.875 2.55 32.875C3.2 32.875 3.66667 32.7167 3.95 32.4C4.23333 32.0667 4.375 31.5834 4.375 30.95V20.85ZM16.8027 33.3C17.0861 33.3 17.3944 33.275 17.7277 33.225C18.0777 33.1584 18.3361 33.075 18.5027 32.975V30.975L16.7027 31.125C16.2361 31.1584 15.8527 31.2584 15.5527 31.425C15.2527 31.5917 15.1027 31.8417 15.1027 32.175C15.1027 32.5084 15.2277 32.7834 15.4777 33C15.7444 33.2 16.1861 33.3 16.8027 33.3ZM16.6027 23.475C17.5027 23.475 18.3194 23.5667 19.0527 23.75C19.8027 23.9334 20.4361 24.2167 20.9527 24.6C21.4861 24.9667 21.8944 25.4417 22.1777 26.025C22.4611 26.5917 22.6027 27.2667 22.6027 28.05V33.65C22.6027 34.0834 22.4777 34.4417 22.2277 34.725C21.9944 34.9917 21.7111 35.225 21.3777 35.425C20.2944 36.075 18.7694 36.4 16.8027 36.4C15.9194 36.4 15.1194 36.3167 14.4027 36.15C13.7027 35.9834 13.0944 35.7334 12.5777 35.4C12.0777 35.0667 11.6861 34.6417 11.4027 34.125C11.1361 33.6084 11.0027 33.0084 11.0027 32.325C11.0027 31.175 11.3444 30.2917 12.0277 29.675C12.7111 29.0584 13.7694 28.675 15.2027 28.525L18.4777 28.175V28C18.4777 27.5167 18.2611 27.175 17.8277 26.975C17.4111 26.7584 16.8027 26.65 16.0027 26.65C15.3694 26.65 14.7527 26.7167 14.1527 26.85C13.5527 26.9834 13.0111 27.15 12.5277 27.35C12.3111 27.2 12.1277 26.975 11.9777 26.675C11.8277 26.3584 11.7527 26.0334 11.7527 25.7C11.7527 25.2667 11.8527 24.925 12.0527 24.675C12.2694 24.4084 12.5944 24.1834 13.0277 24C13.5111 23.8167 14.0777 23.6834 14.7277 23.6C15.3944 23.5167 16.0194 23.475 16.6027 23.475ZM26.8084 32.9C26.6251 32.4834 26.4251 32.0167 26.2084 31.5C26.0084 30.9834 25.7917 30.3917 25.5584 29.725C25.3417 29.0584 25.1084 28.3 24.8584 27.45C24.6251 26.5834 24.3751 25.5917 24.1084 24.475C24.3417 24.2417 24.6501 24.0417 25.0334 23.875C25.4334 23.6917 25.8667 23.6 26.3334 23.6C26.9167 23.6 27.4001 23.725 27.7834 23.975C28.1667 24.2084 28.4501 24.6584 28.6334 25.325L30.6084 32.2H30.7084C30.9084 31.6334 31.1001 31.0167 31.2834 30.35C31.4834 29.6834 31.6751 29 31.8584 28.3C32.0417 27.5834 32.2084 26.875 32.3584 26.175C32.5251 25.4584 32.6667 24.7584 32.7834 24.075C33.3834 23.7584 34.0417 23.6 34.7584 23.6C35.3417 23.6 35.8251 23.725 36.2084 23.975C36.5917 24.225 36.7834 24.6584 36.7834 25.275C36.7834 25.725 36.7251 26.25 36.6084 26.85C36.4917 27.4334 36.3334 28.0584 36.1334 28.725C35.9501 29.3917 35.7251 30.0834 35.4584 30.8C35.2084 31.5 34.9417 32.1917 34.6584 32.875C34.3751 33.5584 34.0834 34.2084 33.7834 34.825C33.4834 35.425 33.1917 35.9667 32.9084 36.45C32.4417 37.2667 32.0084 37.9334 31.6084 38.45C31.2084 38.9667 30.8251 39.3667 30.4584 39.65C30.0917 39.95 29.7251 40.15 29.3584 40.25C28.9917 40.3667 28.6084 40.425 28.2084 40.425C27.5084 40.425 26.9417 40.2167 26.5084 39.8C26.0751 39.3834 25.8167 38.8417 25.7334 38.175C26.2667 37.7584 26.8001 37.2917 27.3334 36.775C27.8667 36.275 28.3501 35.7584 28.7834 35.225C28.5001 35.1417 28.1917 34.95 27.8584 34.65C27.5417 34.3334 27.1917 33.75 26.8084 32.9ZM38.6029 31.35C38.4863 31.1667 38.3779 30.925 38.2779 30.625C38.1779 30.325 38.1279 30.0084 38.1279 29.675C38.1279 29.0584 38.2696 28.6167 38.5529 28.35C38.8363 28.0667 39.2029 27.925 39.6529 27.925H45.0029C45.1029 28.1084 45.2029 28.35 45.3029 28.65C45.4196 28.95 45.4779 29.2667 45.4779 29.6C45.4779 30.2167 45.3363 30.6667 45.0529 30.95C44.7696 31.2167 44.4029 31.35 43.9529 31.35H38.6029ZM50.1658 36.075C49.4492 36.075 48.8825 35.8667 48.4658 35.45C48.0492 35.0334 47.8408 34.4667 47.8408 33.75V20.825C48.0242 20.7917 48.3158 20.75 48.7158 20.7C49.1158 20.6334 49.4992 20.6 49.8658 20.6C50.2492 20.6 50.5825 20.6334 50.8658 20.7C51.1658 20.75 51.4158 20.85 51.6158 21C51.8158 21.15 51.9658 21.3584 52.0658 21.625C52.1658 21.8917 52.2158 22.2417 52.2158 22.675V32.55H57.9408C58.0575 32.7334 58.1658 32.9834 58.2658 33.3C58.3658 33.6 58.4158 33.9167 58.4158 34.25C58.4158 34.9167 58.2742 35.3917 57.9908 35.675C57.7075 35.9417 57.3325 36.075 56.8658 36.075H50.1658ZM59.8449 24.025C60.0116 23.975 60.2699 23.925 60.6199 23.875C60.9866 23.825 61.3616 23.8 61.7449 23.8C62.1116 23.8 62.4366 23.825 62.7199 23.875C63.0199 23.925 63.2699 24.025 63.4699 24.175C63.6699 24.325 63.8199 24.5334 63.9199 24.8C64.0366 25.05 64.0949 25.3834 64.0949 25.8V31.175C64.0949 31.8584 64.2616 32.35 64.5949 32.65C64.9283 32.9334 65.4116 33.075 66.0449 33.075C66.4283 33.075 66.7366 33.0417 66.9699 32.975C67.2199 32.9084 67.4116 32.8417 67.5449 32.775V24.025C67.7116 23.975 67.9699 23.925 68.3199 23.875C68.6866 23.825 69.0616 23.8 69.4449 23.8C69.8116 23.8 70.1366 23.825 70.4199 23.875C70.7199 23.925 70.9699 24.025 71.1699 24.175C71.3699 24.325 71.5199 24.5334 71.6199 24.8C71.7366 25.05 71.7949 25.3834 71.7949 25.8V33.4C71.7949 34.2334 71.4449 34.8584 70.7449 35.275C70.1616 35.6417 69.4616 35.9167 68.6449 36.1C67.8449 36.3 66.9699 36.4 66.0199 36.4C65.1199 36.4 64.2866 36.3 63.5199 36.1C62.7699 35.9 62.1199 35.5917 61.5699 35.175C61.0199 34.7584 60.5949 34.225 60.2949 33.575C59.9949 32.9084 59.8449 32.1084 59.8449 31.175V24.025ZM82.0957 28.3C82.0957 27.7834 81.9457 27.4084 81.6457 27.175C81.3624 26.925 80.9707 26.8 80.4707 26.8C80.1374 26.8 79.804 26.8417 79.4707 26.925C79.154 27.0084 78.879 27.1334 78.6457 27.3V35.975C78.479 36.025 78.2124 36.075 77.8457 36.125C77.4957 36.175 77.129 36.2 76.7457 36.2C76.379 36.2 76.0457 36.175 75.7457 36.125C75.4624 36.075 75.2207 35.975 75.0207 35.825C74.8207 35.675 74.6624 35.475 74.5457 35.225C74.4457 34.9584 74.3957 34.6167 74.3957 34.2V26.7C74.3957 26.25 74.4874 25.8834 74.6707 25.6C74.8707 25.3167 75.1374 25.0584 75.4707 24.825C76.0374 24.425 76.7457 24.1 77.5957 23.85C78.4624 23.6 79.4207 23.475 80.4707 23.475C82.354 23.475 83.804 23.8917 84.8207 24.725C85.8374 25.5417 86.3457 26.6834 86.3457 28.15V35.975C86.179 36.025 85.9124 36.075 85.5457 36.125C85.1957 36.175 84.829 36.2 84.4457 36.2C84.079 36.2 83.7457 36.175 83.4457 36.125C83.1624 36.075 82.9207 35.975 82.7207 35.825C82.5207 35.675 82.3624 35.475 82.2457 35.225C82.1457 34.9584 82.0957 34.6167 82.0957 34.2V28.3ZM95.3959 36.4C94.4126 36.4 93.4959 36.2667 92.6459 36C91.8126 35.7167 91.0792 35.3 90.4459 34.75C89.8292 34.2 89.3376 33.5084 88.9709 32.675C88.6209 31.8417 88.4459 30.8667 88.4459 29.75C88.4459 28.65 88.6209 27.7084 88.9709 26.925C89.3376 26.125 89.8126 25.475 90.3959 24.975C90.9792 24.4584 91.6459 24.0834 92.3959 23.85C93.1459 23.6 93.9126 23.475 94.6959 23.475C95.5792 23.475 96.3792 23.6084 97.0959 23.875C97.8292 24.1417 98.4542 24.5084 98.9709 24.975C99.5042 25.4417 99.9126 26 100.196 26.65C100.496 27.3 100.646 28.0084 100.646 28.775C100.646 29.3417 100.488 29.775 100.171 30.075C99.8542 30.375 99.4126 30.5667 98.8459 30.65L92.6709 31.575C92.8542 32.125 93.2292 32.5417 93.7959 32.825C94.3626 33.0917 95.0126 33.225 95.7459 33.225C96.4292 33.225 97.0709 33.1417 97.6709 32.975C98.2876 32.7917 98.7876 32.5834 99.1709 32.35C99.4376 32.5167 99.6626 32.75 99.8459 33.05C100.029 33.35 100.121 33.6667 100.121 34C100.121 34.75 99.7709 35.3084 99.0709 35.675C98.5376 35.9584 97.9376 36.15 97.2709 36.25C96.6042 36.35 95.9792 36.4 95.3959 36.4ZM94.6959 26.575C94.2959 26.575 93.9459 26.6417 93.6459 26.775C93.3626 26.9084 93.1292 27.0834 92.9459 27.3C92.7626 27.5 92.6209 27.7334 92.5209 28C92.4376 28.25 92.3876 28.5084 92.3709 28.775L96.6459 28.075C96.5959 27.7417 96.4126 27.4084 96.0959 27.075C95.7792 26.7417 95.3126 26.575 94.6959 26.575Z" fill="#4169E1"/>
<path d="M117.249 15.6934C108.491 7.02176 94.3785 7.09114 85.7068 15.8484C84.057 17.5146 82.7264 19.3649 81.7016 21.3596C82.3205 20.4413 83.0324 19.5623 83.8376 18.7493C90.6482 11.8714 101.737 11.8169 108.615 18.6274C115.493 25.438 115.547 36.5267 108.737 43.4046C101.926 50.2825 90.8373 50.337 83.9594 43.5264C82.3199 41.903 81.0638 40.0256 80.205 38.0136C81.23 41.4573 83.1162 44.6978 85.8487 47.4036C94.606 56.0752 108.719 56.0058 117.391 47.2485C126.062 38.4912 126.006 24.365 117.249 15.6934Z" fill="#4169E1"/>
</svg>
