<svg width="63" height="67" viewBox="0 0 63 67" fill="none" xmlns="http://www.w3.org/2000/svg">
<path fill-rule="evenodd" clip-rule="evenodd" d="M24.9056 12.5236L22 7.00006L19.0944 12.5236C18.8892 12.9273 18.5921 13.2771 18.227 13.5451C17.8602 13.8144 17.4357 13.9946 16.9871 14.0715L11 15.2453L15.18 20.2441C15.7516 20.8706 16.0214 21.7154 15.9186 22.5572L15.1234 29.0001L20.636 26.3286C21.0613 26.1227 21.5275 26.0152 22 26.0143C22.4433 26.0157 22.8799 26.1235 23.2729 26.3286L28.9143 28.8351L28.1191 22.4692C28.0186 21.6292 28.2888 20.7871 28.8593 20.1623L33 15.2453L27.0129 14.0715C26.5638 13.9948 26.1387 13.8146 25.7714 13.5451C25.4069 13.2769 25.1104 12.9271 24.9056 12.5236Z" fill="#F2C94C" stroke="black" stroke-width="1.5" stroke-linecap="round" stroke-linejoin="round"/>
<path d="M-2.08226e-06 18.5442C4.70205 11.5288 12.698 6.91479 21.7753 6.91479C36.2334 6.91479 47.9508 18.6322 47.9508 33.0904C47.9508 47.5485 36.2334 59.2659 21.7753 59.2659C12.698 59.2659 4.70205 54.6519 -8.10592e-07 47.6365C5.38095 58.6122 16.6709 66.1807 29.7335 66.1807C48.0137 66.1807 62.8239 51.3705 62.8239 33.0904C62.8239 14.8102 48.0137 1.50527e-05 29.7335 1.58518e-05C16.6709 -0.0125559 5.38095 7.55598 -2.08226e-06 18.5442Z" fill="#FF856C"/>
</svg>
