<svg width="80" height="98" viewBox="0 0 80 98" fill="none" xmlns="http://www.w3.org/2000/svg">
<path d="M11.45 71.7467C11.6407 71.7467 11.7727 71.7833 11.846 71.8567C11.9193 71.9153 11.956 72.0327 11.956 72.2087V72.8247C11.956 73.0007 11.9193 73.1253 11.846 73.1987C11.7727 73.2573 11.6407 73.2867 11.45 73.2867H8.942V80.5467C8.942 82.8787 8.51667 84.8147 7.666 86.3547C7.82733 86.736 8.04733 86.978 8.326 87.0807C8.61933 87.1833 8.942 87.176 9.294 87.0587C9.514 86.9853 9.712 86.934 9.888 86.9047C10.0787 86.8607 10.2693 86.8387 10.46 86.8387C11.032 86.8387 11.494 87.0147 11.846 87.3667C12.2127 87.704 12.396 88.1147 12.396 88.5987C12.396 89.2 12.2127 89.6693 11.846 90.0067C11.4793 90.3587 10.9367 90.5347 10.218 90.5347C9.83667 90.5347 9.46267 90.4613 9.096 90.3147C8.72933 90.1827 8.392 89.992 8.084 89.7427C7.776 89.4933 7.49733 89.2 7.248 88.8627C7.01333 88.5253 6.82267 88.1587 6.676 87.7627C5.50267 89.0827 3.91133 89.9993 1.902 90.5127C1.57933 90.6007 1.35933 90.5127 1.242 90.2487L1.066 89.8527C0.948667 89.6033 1.05867 89.376 1.396 89.1707C1.95333 88.8187 2.43 88.408 2.826 87.9387C3.222 87.4693 3.54467 86.9047 3.794 86.2447C4.058 85.57 4.24867 84.7707 4.366 83.8467C4.48333 82.908 4.542 81.8007 4.542 80.5247V73.2867H2.034C1.84333 73.2867 1.71133 73.2573 1.638 73.1987C1.56467 73.1253 1.528 73.0007 1.528 72.8247V72.2087C1.528 72.0327 1.56467 71.9153 1.638 71.8567C1.71133 71.7833 1.84333 71.7467 2.034 71.7467H11.45ZM16.818 89.5227C16.818 89.9627 16.73 90.278 16.554 90.4687C16.378 90.6593 16.0553 90.7547 15.586 90.7547H14.2C13.7307 90.7547 13.408 90.6593 13.232 90.4687C13.056 90.278 12.968 89.9627 12.968 89.5227V81.1407H10.658C10.4527 81.1407 10.3133 81.104 10.24 81.0307C10.1813 80.9573 10.152 80.84 10.152 80.6787V80.0627C10.152 79.9013 10.1813 79.784 10.24 79.7107C10.3133 79.6373 10.4527 79.6007 10.658 79.6007H12.968V72.7587C12.968 72.3187 13.056 72.0033 13.232 71.8127C13.408 71.622 13.7307 71.5267 14.2 71.5267H15.586C16.0553 71.5267 16.378 71.622 16.554 71.8127C16.73 72.0033 16.818 72.3187 16.818 72.7587V89.5227ZM21.724 89.5227C21.724 89.9627 21.636 90.278 21.46 90.4687C21.284 90.6593 20.9613 90.7547 20.492 90.7547H19.106C18.6367 90.7547 18.314 90.6593 18.138 90.4687C17.962 90.278 17.874 89.9627 17.874 89.5227V72.7587C17.874 72.3187 17.962 72.0033 18.138 71.8127C18.314 71.622 18.6367 71.5267 19.106 71.5267H20.492C20.9613 71.5267 21.284 71.622 21.46 71.8127C21.636 72.0033 21.724 72.3187 21.724 72.7587V89.5227ZM43.3668 89.5227C43.3668 89.9627 43.2788 90.278 43.1028 90.4687C42.9268 90.6593 42.6042 90.7547 42.1348 90.7547H40.1108C39.6415 90.7547 39.3188 90.6593 39.1428 90.4687C38.9668 90.278 38.8788 89.9627 38.8788 89.5227V72.7587C38.8788 72.3187 38.9668 72.0033 39.1428 71.8127C39.3188 71.622 39.6415 71.5267 40.1108 71.5267H42.1348C42.6042 71.5267 42.9268 71.622 43.1028 71.8127C43.2788 72.0033 43.3668 72.3187 43.3668 72.7587V89.5227ZM28.4948 81.1407C28.4948 82.9593 28.5388 84.404 28.6268 85.4747C28.7148 86.5307 28.8395 87.3373 29.0008 87.8947C29.1768 88.452 29.3895 88.8113 29.6388 88.9727C29.8882 89.134 30.1815 89.2147 30.5188 89.2147C30.8415 89.2147 31.1275 89.134 31.3768 88.9727C31.6408 88.8113 31.8535 88.452 32.0148 87.8947C32.1762 87.3373 32.3008 86.5307 32.3888 85.4747C32.4768 84.404 32.5208 82.9593 32.5208 81.1407C32.5208 79.322 32.4768 77.8847 32.3888 76.8287C32.3008 75.758 32.1762 74.944 32.0148 74.3867C31.8535 73.8293 31.6408 73.47 31.3768 73.3087C31.1275 73.1473 30.8415 73.0667 30.5188 73.0667C30.1815 73.0667 29.8882 73.1473 29.6388 73.3087C29.3895 73.47 29.1768 73.8293 29.0008 74.3867C28.8395 74.944 28.7148 75.758 28.6268 76.8287C28.5388 77.8847 28.4948 79.322 28.4948 81.1407ZM36.9208 81.1407C36.9208 82.8713 36.7815 84.3453 36.5028 85.5627C36.2242 86.78 35.8135 87.77 35.2708 88.5327C34.7282 89.31 34.0535 89.8747 33.2468 90.2267C32.4548 90.5787 31.5455 90.7547 30.5188 90.7547C29.4775 90.7547 28.5608 90.5787 27.7688 90.2267C26.9768 89.8747 26.3022 89.31 25.7448 88.5327C25.2022 87.77 24.7915 86.78 24.5128 85.5627C24.2342 84.3453 24.0948 82.8713 24.0948 81.1407C24.0948 79.41 24.2342 77.936 24.5128 76.7187C24.7915 75.5013 25.2022 74.5113 25.7448 73.7487C26.3022 72.9713 26.9768 72.4067 27.7688 72.0547C28.5608 71.7027 29.4775 71.5267 30.5188 71.5267C31.5455 71.5267 32.4548 71.7027 33.2468 72.0547C34.0535 72.4067 34.7282 72.9713 35.2708 73.7487C35.8135 74.5113 36.2242 75.5013 36.5028 76.7187C36.7815 77.936 36.9208 79.41 36.9208 81.1407ZM55.8408 81.2067C56.0462 81.2067 56.1782 81.2433 56.2368 81.3167C56.3102 81.39 56.3468 81.5073 56.3468 81.6687V82.2847C56.3468 82.446 56.3102 82.5633 56.2368 82.6367C56.1782 82.71 56.0462 82.7467 55.8408 82.7467H46.8208C46.6155 82.7467 46.4762 82.71 46.4028 82.6367C46.3442 82.5633 46.3148 82.446 46.3148 82.2847V81.6687C46.3148 81.5073 46.3442 81.39 46.4028 81.3167C46.4762 81.2433 46.6155 81.2067 46.8208 81.2067H55.8408ZM63.8415 88.4007C63.8415 88.738 63.9148 88.9507 64.0615 89.0387C64.2081 89.1413 64.4281 89.1927 64.7215 89.1927H77.0855C77.2908 89.1927 77.4228 89.2293 77.4815 89.3027C77.5548 89.376 77.5915 89.4933 77.5915 89.6547V90.2707C77.5915 90.432 77.5548 90.5493 77.4815 90.6227C77.4228 90.696 77.2908 90.7327 77.0855 90.7327H62.1255C61.0841 90.7327 60.3581 90.5273 59.9475 90.1167C59.5515 89.7207 59.3535 89.0607 59.3535 88.1367V86.3547C59.3535 85.9147 59.4415 85.5993 59.6175 85.4087C59.7935 85.218 60.1161 85.1227 60.5855 85.1227H62.6095C62.7415 85.1227 62.8808 85.1373 63.0275 85.1667V84.9027V83.3847H58.5615C58.3708 83.3847 58.2388 83.3553 58.1655 83.2967C58.0921 83.2233 58.0555 83.0987 58.0555 82.9227V82.3067C58.0555 82.1307 58.0921 82.0133 58.1655 81.9547C58.2388 81.8813 58.3708 81.8447 58.5615 81.8447H71.7615C71.9521 81.8447 72.0841 81.8813 72.1575 81.9547C72.2308 82.0133 72.2675 82.1307 72.2675 82.3067V82.9227C72.2675 83.0987 72.2308 83.2233 72.1575 83.2967C72.0841 83.3553 71.9521 83.3847 71.7615 83.3847H67.5155V84.9027C67.5155 85.3427 67.4275 85.658 67.2515 85.8487C67.0755 86.0393 66.7528 86.1347 66.2835 86.1347H64.2595C64.1715 86.1347 64.0908 86.1347 64.0175 86.1347C63.9588 86.1347 63.8928 86.1273 63.8195 86.1127C63.8341 86.1567 63.8415 86.2373 63.8415 86.3547V88.4007ZM64.3695 76.5867C64.1201 76.5867 63.9441 76.6307 63.8415 76.7187C63.7535 76.8067 63.7095 76.9533 63.7095 77.1587V77.8187C63.7095 78.2733 63.9955 78.5007 64.5675 78.5007C65.0808 78.5007 65.6088 78.4933 66.1515 78.4787C66.6941 78.4493 67.2221 78.4127 67.7355 78.3687C68.2635 78.3247 68.7621 78.2733 69.2315 78.2147C69.7008 78.1413 70.1188 78.068 70.4855 77.9947C70.6908 77.9507 70.8375 77.9433 70.9255 77.9727C71.0135 78.002 71.0795 78.09 71.1235 78.2367L71.2115 78.5007C71.3141 78.8087 71.2481 79.0067 71.0135 79.0947C69.9575 79.52 68.6375 79.8647 67.0535 80.1287C65.4841 80.3927 63.7975 80.5247 61.9935 80.5247C61.0548 80.5247 60.3581 80.3413 59.9035 79.9747C59.4488 79.5933 59.2215 78.992 59.2215 78.1707V76.2787C59.2215 75.8387 59.3095 75.5233 59.4855 75.3327C59.6615 75.142 59.9841 75.0467 60.4535 75.0467H65.6675C65.9168 75.0467 66.0855 75.0027 66.1735 74.9147C66.2761 74.8267 66.3275 74.68 66.3275 74.4747V73.8587C66.3275 73.6533 66.2761 73.5067 66.1735 73.4187C66.0855 73.3307 65.9168 73.2867 65.6675 73.2867H59.9475C59.7568 73.2867 59.6248 73.2573 59.5515 73.1987C59.4781 73.1253 59.4415 73.0007 59.4415 72.8247V72.2087C59.4415 72.0327 59.4781 71.9153 59.5515 71.8567C59.6248 71.7833 59.7568 71.7467 59.9475 71.7467H69.6055C70.0601 71.7467 70.3755 71.842 70.5515 72.0327C70.7275 72.2087 70.8155 72.524 70.8155 72.9787V75.3547C70.8155 75.8093 70.7275 76.132 70.5515 76.3227C70.3755 76.4987 70.0601 76.5867 69.6055 76.5867H64.3695ZM77.5915 84.4407C77.5915 84.8807 77.5035 85.196 77.3275 85.3867C77.1515 85.5773 76.8288 85.6727 76.3595 85.6727H74.3355C73.8661 85.6727 73.5435 85.5773 73.3675 85.3867C73.1915 85.196 73.1035 84.8807 73.1035 84.4407V72.7587C73.1035 72.3187 73.1915 72.0033 73.3675 71.8127C73.5435 71.622 73.8661 71.5267 74.3355 71.5267H76.3595C76.8288 71.5267 77.1515 71.622 77.3275 71.8127C77.5035 72.0033 77.5915 72.3187 77.5915 72.7587V84.4407Z" fill="black"/>
<path fill-rule="evenodd" clip-rule="evenodd" d="M33.9056 12.5236L31 7L28.0944 12.5236C27.8892 12.9272 27.5921 13.2771 27.227 13.545C26.8602 13.8143 26.4357 13.9945 25.9871 14.0714L20 15.2453L24.18 20.244C24.7516 20.8705 25.0214 21.7153 24.9186 22.5571L24.1234 29L29.636 26.3286C30.0613 26.1226 30.5275 26.0152 31 26.0143C31.4433 26.0156 31.8799 26.1234 32.2729 26.3286L37.9143 28.835L37.1191 22.4691C37.0186 21.6291 37.2888 20.787 37.8593 20.1623L42 15.2453L36.0129 14.0714C35.5638 13.9948 35.1387 13.8145 34.7714 13.545C34.4069 13.2769 34.1104 12.927 33.9056 12.5236Z" fill="#F2C94C" stroke="black" stroke-width="1.5" stroke-linecap="round" stroke-linejoin="round"/>
<path d="M9 18.5441C13.702 11.5288 21.698 6.91473 30.7753 6.91473C45.2334 6.91473 56.9508 18.6321 56.9508 33.0903C56.9508 47.5485 45.2334 59.2659 30.7753 59.2659C21.698 59.2659 13.702 54.6518 9 47.6365C14.381 58.6121 25.6709 66.1807 38.7335 66.1807C57.0137 66.1807 71.8239 51.3705 71.8239 33.0903C71.8239 14.8102 57.0137 -4.78751e-05 38.7335 -4.70761e-05C25.6709 -0.0126197 14.381 7.55592 9 18.5441Z" fill="#4169E1"/>
</svg>
