<svg width="400" height="402" viewBox="0 0 400 402" fill="none" xmlns="http://www.w3.org/2000/svg">
<path d="M68.09 192.69C66.6433 192.69 65.2667 192.27 63.96 191.43C62.6533 190.59 61.6733 189.33 61.02 187.65C60.7867 187.043 60.6467 186.39 60.6 185.69C60.5067 185.037 60.46 184.383 60.46 183.73C60.46 183.077 60.5767 182.75 60.81 182.75C61.0433 182.75 61.16 182.937 61.16 183.31C61.16 185.503 61.72 187.16 62.84 188.28C63.9133 189.4 65.29 189.96 66.97 189.96C68.6033 189.96 70.19 189.493 71.73 188.56C73.2233 187.627 74.6233 186.437 75.93 184.99C78.1233 182.61 80.1067 179.903 81.88 176.87C83.7 173.79 85.3333 170.617 86.78 167.35C87.1533 166.557 87.69 165.297 88.39 163.57C89.09 161.797 89.86 159.883 90.7 157.83C91.54 155.73 92.3567 153.84 93.15 152.16C93.85 150.573 94.4333 149.313 94.9 148.38C95.4133 147.447 96.09 146.653 96.93 146C97.77 145.347 99.03 144.693 100.71 144.04C99.9633 144.087 99.2633 144.157 98.61 144.25C97.9567 144.297 97.4433 144.32 97.07 144.32C95.2967 144.367 93.5233 144.483 91.75 144.67C89.9767 144.857 88.39 145.207 86.99 145.72C85.59 146.187 84.5867 146.863 83.98 147.75C83.56 148.357 83.35 149.057 83.35 149.85C83.35 150.643 83.56 151.413 83.98 152.16C84.4 152.907 84.9367 153.443 85.59 153.77C85.6833 153.863 85.73 153.933 85.73 153.98C85.73 154.073 85.6133 154.19 85.38 154.33C85.1933 154.423 84.9833 154.447 84.75 154.4C84.3767 154.167 83.91 153.793 83.35 153.28C82.79 152.72 82.2767 152.137 81.81 151.53C81.39 150.923 81.11 150.41 80.97 149.99C80.7833 149.43 80.69 148.87 80.69 148.31C80.69 147.19 81.0867 146.28 81.88 145.58C82.72 144.88 83.7933 144.343 85.1 143.97C86.4067 143.597 87.8067 143.34 89.3 143.2C90.84 143.013 92.31 142.92 93.71 142.92C95.1567 142.873 96.3933 142.85 97.42 142.85H104.98C105.073 142.85 105.12 142.873 105.12 142.92C105.12 143.06 104.957 143.27 104.63 143.55C104.35 143.783 104.163 143.9 104.07 143.9C102.763 143.947 101.597 144.437 100.57 145.37C99.59 146.303 98.7267 147.377 97.98 148.59C97.28 149.757 96.6967 150.83 96.23 151.81C95.95 152.37 95.5067 153.28 94.9 154.54C94.34 155.753 93.71 157.153 93.01 158.74C92.3567 160.28 91.68 161.82 90.98 163.36C90.3267 164.9 89.7433 166.23 89.23 167.35C88.0167 170.15 86.8733 172.763 85.8 175.19C84.7733 177.57 83.63 179.81 82.37 181.91C81.11 184.01 79.5467 186.063 77.68 188.07C76.5133 189.33 75.0433 190.403 73.27 191.29C71.45 192.223 69.7233 192.69 68.09 192.69ZM102.119 181.21C101.652 181.21 101.255 181.117 100.929 180.93C100.602 180.743 100.439 180.393 100.439 179.88C100.439 179.227 100.602 178.48 100.929 177.64C101.255 176.8 101.629 175.983 102.049 175.19C102.469 174.35 102.842 173.673 103.169 173.16C101.535 174.887 99.8321 176.52 98.0588 178.06C97.1721 178.807 96.1921 179.507 95.1188 180.16C94.0454 180.813 92.9021 181.14 91.6888 181.14C91.2221 181.14 90.8954 181 90.7088 180.72C90.5221 180.393 90.4288 180.02 90.4288 179.6C90.4288 179.367 90.4521 179.203 90.4988 179.11C90.7321 177.29 91.3154 175.4 92.2488 173.44C93.1821 171.48 94.3254 169.637 95.6788 167.91C97.0321 166.183 98.4088 164.783 99.8088 163.71C101.395 162.497 103.145 161.89 105.059 161.89H113.109C113.342 161.89 113.459 161.983 113.459 162.17C113.459 162.543 113.249 162.73 112.829 162.73C112.362 162.73 111.895 163.033 111.429 163.64C110.962 164.2 110.612 164.667 110.379 165.04C110.052 165.553 109.539 166.417 108.839 167.63C108.139 168.843 107.415 170.173 106.669 171.62C105.969 173.02 105.362 174.327 104.849 175.54C104.335 176.753 104.079 177.64 104.079 178.2C104.079 178.853 104.405 179.18 105.059 179.18C105.759 179.18 106.552 178.853 107.439 178.2C108.325 177.547 109.212 176.753 110.099 175.82C111.032 174.84 111.872 173.883 112.619 172.95C113.412 171.97 114.042 171.2 114.509 170.64C114.789 170.92 114.765 171.317 114.439 171.83C114.159 172.297 113.902 172.67 113.669 172.95C112.735 174.163 111.662 175.423 110.449 176.73C109.235 177.99 107.905 179.063 106.459 179.95C105.059 180.79 103.612 181.21 102.119 181.21ZM94.5588 178.76C95.1188 178.76 95.8888 178.363 96.8688 177.57C97.8954 176.73 98.9921 175.703 100.159 174.49C101.325 173.23 102.422 171.923 103.449 170.57C104.475 169.17 105.315 167.91 105.969 166.79C106.669 165.623 107.019 164.737 107.019 164.13C107.019 163.617 106.855 163.267 106.529 163.08C106.249 162.893 105.875 162.8 105.409 162.8C104.662 162.8 103.845 163.08 102.959 163.64C102.119 164.153 101.442 164.667 100.929 165.18C100.369 165.693 99.6921 166.51 98.8988 167.63C98.1521 168.703 97.4054 169.893 96.6588 171.2C95.9121 172.507 95.2821 173.767 94.7688 174.98C94.2554 176.193 93.9988 177.173 93.9988 177.92C93.9988 178.48 94.1854 178.76 94.5588 178.76ZM105.965 205.5C104.192 205.5 102.488 205.08 100.855 204.24C99.1749 203.447 97.9383 202.21 97.1449 200.53C96.8649 199.923 96.6783 199.27 96.5849 198.57C96.4916 197.917 96.4449 197.263 96.4449 196.61V195.84C96.4449 195.467 96.4916 195.117 96.5849 194.79C96.6783 194.51 96.9116 194.37 97.2849 194.37C97.3783 194.37 97.4249 194.417 97.4249 194.51C97.4249 194.79 97.4016 195.07 97.3549 195.35C97.3083 195.63 97.2849 195.933 97.2849 196.26C97.2849 198.407 97.9849 200.04 99.3849 201.16C100.738 202.28 102.442 202.84 104.495 202.84C105.335 202.84 106.198 202.747 107.085 202.56C107.972 202.373 108.812 202.117 109.605 201.79C112.545 200.53 115.088 198.733 117.235 196.4C119.428 194.113 121.342 191.523 122.975 188.63C124.608 185.737 126.078 182.797 127.385 179.81C128.132 178.037 128.785 176.31 129.345 174.63C129.952 172.95 130.488 171.433 130.955 170.08C130.488 170.733 129.882 171.527 129.135 172.46C128.388 173.393 127.642 174.303 126.895 175.19C126.148 176.03 125.495 176.707 124.935 177.22C123.768 178.34 122.508 179.297 121.155 180.09C119.848 180.837 118.495 181.21 117.095 181.21C116.628 181.21 116.232 181.117 115.905 180.93C115.578 180.743 115.415 180.393 115.415 179.88C115.415 179.227 115.578 178.457 115.905 177.57C116.278 176.683 116.675 175.797 117.095 174.91C117.515 174.023 117.865 173.3 118.145 172.74C118.705 171.667 119.242 170.593 119.755 169.52C120.268 168.447 120.712 167.537 121.085 166.79C121.458 166.09 121.645 165.623 121.645 165.39C121.645 165.017 121.365 165.017 120.805 165.39C120.292 165.763 119.802 166.137 119.335 166.51C118.308 167.49 117.235 168.657 116.115 170.01C114.995 171.317 114.132 172.367 113.525 173.16C113.385 173.347 113.268 173.44 113.175 173.44C113.082 173.44 113.035 173.323 113.035 173.09C113.035 172.717 113.152 172.367 113.385 172.04C114.038 171.107 114.808 170.08 115.695 168.96C116.582 167.84 117.492 166.767 118.425 165.74C119.312 164.807 120.222 163.897 121.155 163.01C122.088 162.123 123.278 161.68 124.725 161.68C125.705 161.68 126.195 162.053 126.195 162.8C126.195 163.453 125.915 164.2 125.355 165.04C125.028 165.553 124.515 166.417 123.815 167.63C123.115 168.843 122.392 170.173 121.645 171.62C120.945 173.02 120.338 174.327 119.825 175.54C119.312 176.753 119.055 177.64 119.055 178.2C119.055 178.853 119.382 179.18 120.035 179.18C120.548 179.18 121.178 178.923 121.925 178.41C122.672 177.85 123.442 177.197 124.235 176.45C125.588 175.143 126.825 173.697 127.945 172.11C129.112 170.523 130.115 169.007 130.955 167.56C131.095 167.327 131.328 166.907 131.655 166.3C132.028 165.693 132.402 165.11 132.775 164.55C133.195 163.99 133.522 163.663 133.755 163.57C133.988 163.477 134.455 163.22 135.155 162.8C135.855 162.38 136.555 162.1 137.255 161.96C137.908 161.82 138.398 161.75 138.725 161.75C139.238 161.75 139.495 161.89 139.495 162.17C139.495 162.543 139.285 162.73 138.865 162.73C138.352 162.73 137.885 162.87 137.465 163.15C137.045 163.383 136.718 163.687 136.485 164.06C136.065 164.667 135.458 165.763 134.665 167.35C133.918 168.937 133.078 170.78 132.145 172.88C131.258 174.933 130.372 177.033 129.485 179.18C128.598 181.28 127.782 183.217 127.035 184.99C125.915 187.65 124.632 190.24 123.185 192.76C121.738 195.327 120.035 197.613 118.075 199.62C116.162 201.673 113.875 203.283 111.215 204.45C109.628 205.15 107.878 205.5 105.965 205.5ZM150.257 170.92C149.697 170.873 149.091 170.827 148.437 170.78C147.831 170.687 147.061 170.64 146.127 170.64C145.054 170.64 144.051 170.663 143.117 170.71C142.231 170.71 141.251 170.757 140.177 170.85C140.084 170.85 140.131 170.687 140.317 170.36C140.504 170.033 140.737 169.707 141.017 169.38C141.344 169.053 141.577 168.913 141.717 168.96C142.231 169.053 142.884 169.123 143.677 169.17C144.517 169.17 145.381 169.193 146.267 169.24C147.481 169.24 148.554 169.217 149.487 169.17C150.421 169.123 151.191 169.077 151.797 169.03C151.891 169.03 151.844 169.193 151.657 169.52C151.471 169.847 151.237 170.173 150.957 170.5C150.677 170.78 150.444 170.92 150.257 170.92ZM152.849 181.49C152.802 181.537 152.756 181.56 152.709 181.56C152.569 181.56 152.499 181.35 152.499 180.93C152.499 180.65 152.569 180.37 152.709 180.09C152.896 179.763 153.222 179.577 153.689 179.53C154.996 179.437 156.232 178.993 157.399 178.2C158.566 177.407 159.592 176.473 160.479 175.4C161.366 174.28 161.996 173.23 162.369 172.25L168.809 156.15C169.696 153.957 170.699 151.833 171.819 149.78C172.986 147.727 174.456 146.047 176.229 144.74C178.049 143.433 180.336 142.78 183.089 142.78C184.162 142.78 185.236 142.92 186.309 143.2C187.429 143.433 188.362 143.83 189.109 144.39C189.856 144.95 190.229 145.743 190.229 146.77C190.229 146.91 190.229 147.05 190.229 147.19C190.229 147.33 190.206 147.47 190.159 147.61C190.019 148.357 189.599 149.103 188.899 149.85C188.246 150.597 187.732 151.53 187.359 152.65C187.312 152.977 187.102 153.14 186.729 153.14C186.402 153.14 186.332 152.93 186.519 152.51C186.892 151.95 187.172 151.297 187.359 150.55C187.592 149.757 187.709 148.963 187.709 148.17C187.709 146.957 187.429 145.883 186.869 144.95C186.309 144.017 185.352 143.55 183.999 143.55C182.786 143.55 181.549 143.9 180.289 144.6C179.029 145.3 177.932 146.513 176.999 148.24L164.049 172.11C162.836 174.35 161.716 175.96 160.689 176.94C159.709 177.873 158.892 178.457 158.239 178.69H175.109C177.349 178.69 179.426 178.62 181.339 178.48C183.252 178.34 184.419 177.99 184.839 177.43C185.306 176.777 185.539 176.077 185.539 175.33C185.539 174.163 184.909 173.3 183.649 172.74C183.509 172.647 183.439 172.553 183.439 172.46C183.439 172.367 183.486 172.273 183.579 172.18C183.719 172.087 183.882 172.087 184.069 172.18C184.489 172.367 184.979 172.787 185.539 173.44C186.146 174.047 186.706 174.723 187.219 175.47C187.732 176.17 188.059 176.73 188.199 177.15C188.339 177.57 188.409 177.99 188.409 178.41C188.409 180.323 186.752 181.28 183.439 181.28C180.826 181.28 178.026 181.187 175.039 181C172.052 180.813 169.089 180.603 166.149 180.37C163.256 180.137 160.526 179.973 157.959 179.88C156.979 179.787 155.999 179.927 155.019 180.3C154.086 180.627 153.362 181.023 152.849 181.49ZM196.87 181.21C196.404 181.21 196.007 181.117 195.68 180.93C195.354 180.743 195.19 180.393 195.19 179.88C195.19 179.227 195.354 178.457 195.68 177.57C196.054 176.683 196.45 175.797 196.87 174.91C197.29 174.023 197.64 173.3 197.92 172.74C198.48 171.667 199.017 170.593 199.53 169.52C200.044 168.447 200.487 167.537 200.86 166.79C201.234 166.09 201.42 165.623 201.42 165.39C201.42 165.017 201.14 165.017 200.58 165.39C200.067 165.763 199.577 166.137 199.11 166.51C198.084 167.49 197.01 168.657 195.89 170.01C194.77 171.317 193.907 172.367 193.3 173.16C193.16 173.347 193.044 173.44 192.95 173.44C192.857 173.44 192.81 173.323 192.81 173.09C192.81 172.717 192.927 172.367 193.16 172.04C193.814 171.107 194.584 170.08 195.47 168.96C196.357 167.84 197.267 166.767 198.2 165.74C199.087 164.807 199.997 163.897 200.93 163.01C201.864 162.123 203.054 161.68 204.5 161.68C205.48 161.68 205.97 162.053 205.97 162.8C205.97 163.453 205.69 164.2 205.13 165.04C204.804 165.553 204.29 166.417 203.59 167.63C202.89 168.843 202.167 170.173 201.42 171.62C200.72 173.02 200.114 174.327 199.6 175.54C199.087 176.753 198.83 177.64 198.83 178.2C198.83 178.853 199.157 179.18 199.81 179.18C200.324 179.18 200.954 178.923 201.7 178.41C202.447 177.85 203.217 177.197 204.01 176.45C205.457 175.05 206.764 173.533 207.93 171.9C209.144 170.22 210.17 168.61 211.01 167.07C211.897 165.53 212.597 164.27 213.11 163.29C213.204 163.103 213.297 162.893 213.39 162.66C213.53 162.38 213.74 162.217 214.02 162.17C214.3 162.123 214.907 162.1 215.84 162.1C216.774 162.1 217.637 161.913 218.43 161.54H218.57C218.71 161.54 218.78 161.61 218.78 161.75C218.78 162.123 218.477 162.403 217.87 162.59C217.31 162.777 216.657 163.337 215.91 164.27C215.21 165.203 214.51 166.347 213.81 167.7C213.11 169.007 212.48 170.36 211.92 171.76C211.36 173.16 210.94 174.443 210.66 175.61C210.38 176.777 210.31 177.64 210.45 178.2C210.637 178.853 210.964 179.18 211.43 179.18C212.037 179.18 212.877 178.807 213.95 178.06C215.07 177.313 216.214 176.427 217.38 175.4C218.547 174.327 219.504 173.347 220.25 172.46C220.577 172.087 220.88 171.713 221.16 171.34C221.44 170.967 221.627 170.733 221.72 170.64C221.767 170.687 221.814 170.78 221.86 170.92C221.907 171.013 221.93 171.107 221.93 171.2C221.884 171.527 221.767 171.853 221.58 172.18C221.394 172.46 221.184 172.717 220.95 172.95C220.064 174.117 218.99 175.353 217.73 176.66C216.517 177.92 215.187 178.993 213.74 179.88C212.34 180.767 210.894 181.21 209.4 181.21C208.934 181.21 208.397 181.093 207.79 180.86C207.23 180.627 206.95 180.113 206.95 179.32C206.95 178.713 207.114 177.897 207.44 176.87C207.767 175.797 208.117 174.747 208.49 173.72C208.91 172.647 209.26 171.853 209.54 171.34C208.934 172.227 208.187 173.23 207.3 174.35C206.46 175.423 205.597 176.38 204.71 177.22C203.544 178.34 202.284 179.297 200.93 180.09C199.624 180.837 198.27 181.21 196.87 181.21ZM220.851 182.05C220.664 182.05 220.664 181.84 220.851 181.42C221.084 181 221.294 180.533 221.481 180.02C221.714 179.507 221.947 178.947 222.181 178.34C222.647 177.22 223.161 175.96 223.721 174.56C224.281 173.16 224.817 171.807 225.331 170.5C225.844 169.147 226.287 168.003 226.661 167.07C227.081 166.09 227.361 165.46 227.501 165.18C226.847 165.88 226.054 166.767 225.121 167.84C224.234 168.867 223.394 169.87 222.601 170.85C221.807 171.83 221.201 172.6 220.781 173.16C220.641 173.347 220.524 173.44 220.431 173.44C220.337 173.44 220.291 173.323 220.291 173.09C220.291 172.717 220.407 172.367 220.641 172.04C221.527 170.92 222.507 169.66 223.581 168.26C224.701 166.86 225.704 165.577 226.591 164.41C227.477 163.197 228.037 162.403 228.271 162.03C228.784 161.937 229.531 161.797 230.511 161.61C231.537 161.423 232.237 161.167 232.611 160.84C232.751 160.7 232.891 160.63 233.031 160.63C233.124 160.63 233.171 160.723 233.171 160.91C233.217 161.05 233.171 161.213 233.031 161.4C232.751 161.727 232.261 162.497 231.561 163.71C230.907 164.877 230.184 166.183 229.391 167.63C228.644 169.077 227.944 170.383 227.291 171.55C227.851 170.803 228.457 170.08 229.111 169.38C229.764 168.68 230.394 168.003 231.001 167.35C231.561 166.79 232.331 166.09 233.311 165.25C234.291 164.41 235.317 163.64 236.391 162.94C237.464 162.24 238.397 161.843 239.191 161.75C239.377 161.703 239.541 161.68 239.681 161.68C239.867 161.68 240.007 161.68 240.101 161.68C241.127 161.68 241.641 162.053 241.641 162.8C241.641 163.36 241.337 164.107 240.731 165.04C240.404 165.553 239.891 166.417 239.191 167.63C238.537 168.797 237.861 170.08 237.161 171.48C236.507 172.833 235.924 174.117 235.411 175.33C234.944 176.497 234.711 177.36 234.711 177.92C234.711 178.573 235.037 178.9 235.691 178.9C236.484 178.9 237.347 178.503 238.281 177.71C239.261 176.917 240.311 175.913 241.431 174.7C242.551 173.44 243.671 172.11 244.791 170.71C244.884 170.803 244.931 170.967 244.931 171.2C244.931 171.527 244.814 171.853 244.581 172.18C244.394 172.46 244.207 172.717 244.021 172.95C243.554 173.557 242.924 174.327 242.131 175.26C241.384 176.147 240.614 177.033 239.821 177.92C239.027 178.76 238.304 179.437 237.651 179.95C237.184 180.277 236.577 180.627 235.831 181C235.084 181.373 234.337 181.56 233.591 181.56C232.751 181.56 232.167 181.35 231.841 180.93C231.514 180.463 231.351 179.903 231.351 179.25C231.351 178.503 231.491 177.71 231.771 176.87C232.051 176.03 232.354 175.237 232.681 174.49C233.054 173.697 233.334 173.113 233.521 172.74C234.361 171.107 235.131 169.567 235.831 168.12C236.531 166.673 237.021 165.647 237.301 165.04C237.441 164.76 237.511 164.527 237.511 164.34C237.511 164.013 237.254 163.99 236.741 164.27C236.227 164.55 235.597 164.97 234.851 165.53C234.151 166.09 233.497 166.65 232.891 167.21C232.284 167.723 231.887 168.073 231.701 168.26C229.974 170.08 228.457 172.11 227.151 174.35C225.891 176.543 224.817 178.807 223.931 181.14C223.324 181.187 222.717 181.35 222.111 181.63C221.504 181.91 221.084 182.05 220.851 182.05ZM247.526 181.56C245.613 181.56 244.283 181.187 243.536 180.44C242.79 179.693 242.416 178.783 242.416 177.71C242.416 176.357 242.766 174.91 243.466 173.37C244.213 171.83 244.913 170.523 245.566 169.45C246.313 168.33 247.316 167.163 248.576 165.95C249.836 164.737 251.213 163.71 252.706 162.87C254.2 162.03 255.646 161.61 257.046 161.61C258.26 161.61 259.1 161.913 259.566 162.52C260.033 163.08 260.266 163.757 260.266 164.55C260.266 165.997 259.823 167.187 258.936 168.12C258.096 169.053 257.046 169.823 255.786 170.43C254.526 170.99 253.313 171.457 252.146 171.83C251.446 172.017 250.63 172.203 249.696 172.39C248.763 172.577 247.876 172.67 247.036 172.67C246.71 173.51 246.453 174.327 246.266 175.12C246.08 175.913 245.986 176.637 245.986 177.29C245.986 178.083 246.173 178.737 246.546 179.25C246.966 179.763 247.643 180.02 248.576 180.02C248.95 180.02 249.393 179.973 249.906 179.88C250.42 179.787 250.98 179.647 251.586 179.46C252.986 178.993 254.363 178.247 255.716 177.22C257.07 176.193 258.306 175.097 259.426 173.93C260.593 172.717 261.48 171.713 262.086 170.92C262.226 171.06 262.296 171.223 262.296 171.41C262.296 171.643 262.133 172.017 261.806 172.53C260.873 173.837 259.66 175.19 258.166 176.59C256.673 177.99 255.016 179.18 253.196 180.16C251.376 181.093 249.486 181.56 247.526 181.56ZM247.596 171.27C248.203 171.317 248.88 171.317 249.626 171.27C250.42 171.177 251.19 171.013 251.936 170.78C253.85 170.22 255.226 169.333 256.066 168.12C256.953 166.86 257.396 165.74 257.396 164.76C257.396 164.2 257.28 163.733 257.046 163.36C256.813 162.987 256.44 162.8 255.926 162.8C254.573 162.8 253.36 163.313 252.286 164.34C251.213 165.32 250.28 166.463 249.486 167.77C248.693 169.077 248.063 170.243 247.596 171.27Z" fill="#F2C94C"/>
<path d="M138.45 213.566C138.641 213.566 138.773 213.603 138.846 213.676C138.919 213.735 138.956 213.852 138.956 214.028V214.644C138.956 214.82 138.919 214.945 138.846 215.018C138.773 215.077 138.641 215.106 138.45 215.106H135.942V222.366C135.942 224.698 135.517 226.634 134.666 228.174C134.827 228.555 135.047 228.797 135.326 228.9C135.619 229.003 135.942 228.995 136.294 228.878C136.514 228.805 136.712 228.753 136.888 228.724C137.079 228.68 137.269 228.658 137.46 228.658C138.032 228.658 138.494 228.834 138.846 229.186C139.213 229.523 139.396 229.934 139.396 230.418C139.396 231.019 139.213 231.489 138.846 231.826C138.479 232.178 137.937 232.354 137.218 232.354C136.837 232.354 136.463 232.281 136.096 232.134C135.729 232.002 135.392 231.811 135.084 231.562C134.776 231.313 134.497 231.019 134.248 230.682C134.013 230.345 133.823 229.978 133.676 229.582C132.503 230.902 130.911 231.819 128.902 232.332C128.579 232.42 128.359 232.332 128.242 232.068L128.066 231.672C127.949 231.423 128.059 231.195 128.396 230.99C128.953 230.638 129.43 230.227 129.826 229.758C130.222 229.289 130.545 228.724 130.794 228.064C131.058 227.389 131.249 226.59 131.366 225.666C131.483 224.727 131.542 223.62 131.542 222.344V215.106H129.034C128.843 215.106 128.711 215.077 128.638 215.018C128.565 214.945 128.528 214.82 128.528 214.644V214.028C128.528 213.852 128.565 213.735 128.638 213.676C128.711 213.603 128.843 213.566 129.034 213.566H138.45ZM143.818 231.342C143.818 231.782 143.73 232.097 143.554 232.288C143.378 232.479 143.055 232.574 142.586 232.574H141.2C140.731 232.574 140.408 232.479 140.232 232.288C140.056 232.097 139.968 231.782 139.968 231.342V222.96H137.658C137.453 222.96 137.313 222.923 137.24 222.85C137.181 222.777 137.152 222.659 137.152 222.498V221.882C137.152 221.721 137.181 221.603 137.24 221.53C137.313 221.457 137.453 221.42 137.658 221.42H139.968V214.578C139.968 214.138 140.056 213.823 140.232 213.632C140.408 213.441 140.731 213.346 141.2 213.346H142.586C143.055 213.346 143.378 213.441 143.554 213.632C143.73 213.823 143.818 214.138 143.818 214.578V231.342ZM148.724 231.342C148.724 231.782 148.636 232.097 148.46 232.288C148.284 232.479 147.961 232.574 147.492 232.574H146.106C145.637 232.574 145.314 232.479 145.138 232.288C144.962 232.097 144.874 231.782 144.874 231.342V214.578C144.874 214.138 144.962 213.823 145.138 213.632C145.314 213.441 145.637 213.346 146.106 213.346H147.492C147.961 213.346 148.284 213.441 148.46 213.632C148.636 213.823 148.724 214.138 148.724 214.578V231.342ZM170.367 231.342C170.367 231.782 170.279 232.097 170.103 232.288C169.927 232.479 169.604 232.574 169.135 232.574H167.111C166.642 232.574 166.319 232.479 166.143 232.288C165.967 232.097 165.879 231.782 165.879 231.342V214.578C165.879 214.138 165.967 213.823 166.143 213.632C166.319 213.441 166.642 213.346 167.111 213.346H169.135C169.604 213.346 169.927 213.441 170.103 213.632C170.279 213.823 170.367 214.138 170.367 214.578V231.342ZM155.495 222.96C155.495 224.779 155.539 226.223 155.627 227.294C155.715 228.35 155.84 229.157 156.001 229.714C156.177 230.271 156.39 230.631 156.639 230.792C156.888 230.953 157.182 231.034 157.519 231.034C157.842 231.034 158.128 230.953 158.377 230.792C158.641 230.631 158.854 230.271 159.015 229.714C159.176 229.157 159.301 228.35 159.389 227.294C159.477 226.223 159.521 224.779 159.521 222.96C159.521 221.141 159.477 219.704 159.389 218.648C159.301 217.577 159.176 216.763 159.015 216.206C158.854 215.649 158.641 215.289 158.377 215.128C158.128 214.967 157.842 214.886 157.519 214.886C157.182 214.886 156.888 214.967 156.639 215.128C156.39 215.289 156.177 215.649 156.001 216.206C155.84 216.763 155.715 217.577 155.627 218.648C155.539 219.704 155.495 221.141 155.495 222.96ZM163.921 222.96C163.921 224.691 163.782 226.165 163.503 227.382C163.224 228.599 162.814 229.589 162.271 230.352C161.728 231.129 161.054 231.694 160.247 232.046C159.455 232.398 158.546 232.574 157.519 232.574C156.478 232.574 155.561 232.398 154.769 232.046C153.977 231.694 153.302 231.129 152.745 230.352C152.202 229.589 151.792 228.599 151.513 227.382C151.234 226.165 151.095 224.691 151.095 222.96C151.095 221.229 151.234 219.755 151.513 218.538C151.792 217.321 152.202 216.331 152.745 215.568C153.302 214.791 153.977 214.226 154.769 213.874C155.561 213.522 156.478 213.346 157.519 213.346C158.546 213.346 159.455 213.522 160.247 213.874C161.054 214.226 161.728 214.791 162.271 215.568C162.814 216.331 163.224 217.321 163.503 218.538C163.782 219.755 163.921 221.229 163.921 222.96ZM182.841 223.026C183.046 223.026 183.178 223.063 183.237 223.136C183.31 223.209 183.347 223.327 183.347 223.488V224.104C183.347 224.265 183.31 224.383 183.237 224.456C183.178 224.529 183.046 224.566 182.841 224.566H173.821C173.616 224.566 173.476 224.529 173.403 224.456C173.344 224.383 173.315 224.265 173.315 224.104V223.488C173.315 223.327 173.344 223.209 173.403 223.136C173.476 223.063 173.616 223.026 173.821 223.026H182.841ZM190.841 230.22C190.841 230.557 190.915 230.77 191.061 230.858C191.208 230.961 191.428 231.012 191.721 231.012H204.085C204.291 231.012 204.423 231.049 204.481 231.122C204.555 231.195 204.591 231.313 204.591 231.474V232.09C204.591 232.251 204.555 232.369 204.481 232.442C204.423 232.515 204.291 232.552 204.085 232.552H189.125C188.084 232.552 187.358 232.347 186.947 231.936C186.551 231.54 186.353 230.88 186.353 229.956V228.174C186.353 227.734 186.441 227.419 186.617 227.228C186.793 227.037 187.116 226.942 187.585 226.942H189.609C189.741 226.942 189.881 226.957 190.027 226.986V226.722V225.204H185.561C185.371 225.204 185.239 225.175 185.165 225.116C185.092 225.043 185.055 224.918 185.055 224.742V224.126C185.055 223.95 185.092 223.833 185.165 223.774C185.239 223.701 185.371 223.664 185.561 223.664H198.761C198.952 223.664 199.084 223.701 199.157 223.774C199.231 223.833 199.267 223.95 199.267 224.126V224.742C199.267 224.918 199.231 225.043 199.157 225.116C199.084 225.175 198.952 225.204 198.761 225.204H194.515V226.722C194.515 227.162 194.427 227.477 194.251 227.668C194.075 227.859 193.753 227.954 193.283 227.954H191.259C191.171 227.954 191.091 227.954 191.017 227.954C190.959 227.954 190.893 227.947 190.819 227.932C190.834 227.976 190.841 228.057 190.841 228.174V230.22ZM191.369 218.406C191.12 218.406 190.944 218.45 190.841 218.538C190.753 218.626 190.709 218.773 190.709 218.978V219.638C190.709 220.093 190.995 220.32 191.567 220.32C192.081 220.32 192.609 220.313 193.151 220.298C193.694 220.269 194.222 220.232 194.735 220.188C195.263 220.144 195.762 220.093 196.231 220.034C196.701 219.961 197.119 219.887 197.485 219.814C197.691 219.77 197.837 219.763 197.925 219.792C198.013 219.821 198.079 219.909 198.123 220.056L198.211 220.32C198.314 220.628 198.248 220.826 198.013 220.914C196.957 221.339 195.637 221.684 194.053 221.948C192.484 222.212 190.797 222.344 188.993 222.344C188.055 222.344 187.358 222.161 186.903 221.794C186.449 221.413 186.221 220.811 186.221 219.99V218.098C186.221 217.658 186.309 217.343 186.485 217.152C186.661 216.961 186.984 216.866 187.453 216.866H192.667C192.917 216.866 193.085 216.822 193.173 216.734C193.276 216.646 193.327 216.499 193.327 216.294V215.678C193.327 215.473 193.276 215.326 193.173 215.238C193.085 215.15 192.917 215.106 192.667 215.106H186.947C186.757 215.106 186.625 215.077 186.551 215.018C186.478 214.945 186.441 214.82 186.441 214.644V214.028C186.441 213.852 186.478 213.735 186.551 213.676C186.625 213.603 186.757 213.566 186.947 213.566H196.605C197.06 213.566 197.375 213.661 197.551 213.852C197.727 214.028 197.815 214.343 197.815 214.798V217.174C197.815 217.629 197.727 217.951 197.551 218.142C197.375 218.318 197.06 218.406 196.605 218.406H191.369ZM204.591 226.26C204.591 226.7 204.503 227.015 204.327 227.206C204.151 227.397 203.829 227.492 203.359 227.492H201.335C200.866 227.492 200.543 227.397 200.367 227.206C200.191 227.015 200.103 226.7 200.103 226.26V214.578C200.103 214.138 200.191 213.823 200.367 213.632C200.543 213.441 200.866 213.346 201.335 213.346H203.359C203.829 213.346 204.151 213.441 204.327 213.632C204.503 213.823 204.591 214.138 204.591 214.578V226.26Z" fill="#F2C94C"/>
<g filter="url(#filter0_dd_17_42)">
<path d="M67.8303 262.012C123.169 311.797 208.19 307.471 257.729 252.35C307.272 197.229 302.572 112.188 247.236 62.4049C233.46 50.016 217.847 40.9794 201.401 35.2418C231.699 38.7828 261.274 51.3958 285.72 73.3901C348.305 129.69 353.62 225.87 297.589 288.208C241.559 350.547 145.406 355.44 82.8187 299.138C58.3706 277.146 42.7054 249.061 35.98 219.292C43.4247 235.047 54.0567 249.62 67.8303 262.012Z" fill="#F2C94C"/>
</g>
<defs>
<filter id="filter0_dd_17_42" x="0.97998" y="0.241852" width="370.389" height="373.12" filterUnits="userSpaceOnUse" color-interpolation-filters="sRGB">
<feFlood flood-opacity="0" result="BackgroundImageFix"/>
<feColorMatrix in="SourceAlpha" type="matrix" values="0 0 0 0 0 0 0 0 0 0 0 0 0 0 0 0 0 0 127 0" result="hardAlpha"/>
<feOffset dx="5" dy="5"/>
<feGaussianBlur stdDeviation="15"/>
<feComposite in2="hardAlpha" operator="out"/>
<feColorMatrix type="matrix" values="0 0 0 0 0.94902 0 0 0 0 0.788235 0 0 0 0 0.298039 0 0 0 0.78 0"/>
<feBlend mode="normal" in2="BackgroundImageFix" result="effect1_dropShadow_17_42"/>
<feColorMatrix in="SourceAlpha" type="matrix" values="0 0 0 0 0 0 0 0 0 0 0 0 0 0 0 0 0 0 127 0" result="hardAlpha"/>
<feOffset dx="-5" dy="-5"/>
<feGaussianBlur stdDeviation="15"/>
<feComposite in2="hardAlpha" operator="out"/>
<feColorMatrix type="matrix" values="0 0 0 0 0.94902 0 0 0 0 0.788235 0 0 0 0 0.298039 0 0 0 0.78 0"/>
<feBlend mode="normal" in2="effect1_dropShadow_17_42" result="effect2_dropShadow_17_42"/>
<feBlend mode="normal" in="SourceGraphic" in2="effect2_dropShadow_17_42" result="shape"/>
</filter>
</defs>
</svg>
