<svg width="150" height="63" viewBox="0 0 150 63" fill="none" xmlns="http://www.w3.org/2000/svg">
<path d="M4.48 43.68C3.65333 43.68 2.86667 43.44 2.12 42.96C1.37333 42.48 0.813333 41.76 0.439999 40.8C0.306666 40.4533 0.226666 40.08 0.199999 39.68C0.146666 39.3067 0.119999 38.9333 0.119999 38.56C0.119999 38.1867 0.186666 38 0.32 38C0.453333 38 0.52 38.1067 0.52 38.32C0.52 39.5733 0.84 40.52 1.48 41.16C2.09333 41.8 2.88 42.12 3.84 42.12C4.77333 42.12 5.68 41.8533 6.56 41.32C7.41333 40.7867 8.21333 40.1067 8.96 39.28C10.2133 37.92 11.3467 36.3733 12.36 34.64C13.4 32.88 14.3333 31.0667 15.16 29.2C15.3733 28.7467 15.68 28.0267 16.08 27.04C16.48 26.0267 16.92 24.9333 17.4 23.76C17.88 22.56 18.3467 21.48 18.8 20.52C19.2 19.6133 19.5333 18.8933 19.8 18.36C20.0933 17.8267 20.48 17.3733 20.96 17C21.44 16.6267 22.16 16.2533 23.12 15.88C22.6933 15.9067 22.2933 15.9467 21.92 16C21.5467 16.0267 21.2533 16.04 21.04 16.04C20.0267 16.0667 19.0133 16.1333 18 16.24C16.9867 16.3467 16.08 16.5467 15.28 16.84C14.48 17.1067 13.9067 17.4933 13.56 18C13.32 18.3467 13.2 18.7467 13.2 19.2C13.2 19.6533 13.32 20.0933 13.56 20.52C13.8 20.9467 14.1067 21.2533 14.48 21.44C14.5333 21.4933 14.56 21.5333 14.56 21.56C14.56 21.6133 14.4933 21.68 14.36 21.76C14.2533 21.8133 14.1333 21.8267 14 21.8C13.7867 21.6667 13.52 21.4533 13.2 21.16C12.88 20.84 12.5867 20.5067 12.32 20.16C12.08 19.8133 11.92 19.52 11.84 19.28C11.7333 18.96 11.68 18.64 11.68 18.32C11.68 17.68 11.9067 17.16 12.36 16.76C12.84 16.36 13.4533 16.0533 14.2 15.84C14.9467 15.6267 15.7467 15.48 16.6 15.4C17.48 15.2933 18.32 15.24 19.12 15.24C19.9467 15.2133 20.6533 15.2 21.24 15.2H25.56C25.6133 15.2 25.64 15.2133 25.64 15.24C25.64 15.32 25.5467 15.44 25.36 15.6C25.2 15.7333 25.0933 15.8 25.04 15.8C24.2933 15.8267 23.6267 16.1067 23.04 16.64C22.48 17.1733 21.9867 17.7867 21.56 18.48C21.16 19.1467 20.8267 19.76 20.56 20.32C20.4 20.64 20.1467 21.16 19.8 21.88C19.48 22.5733 19.12 23.3733 18.72 24.28C18.3467 25.16 17.96 26.04 17.56 26.92C17.1867 27.8 16.8533 28.56 16.56 29.2C15.8667 30.8 15.2133 32.2933 14.6 33.68C14.0133 35.04 13.36 36.32 12.64 37.52C11.92 38.72 11.0267 39.8933 9.96 41.04C9.29333 41.76 8.45333 42.3733 7.44 42.88C6.4 43.4133 5.41333 43.68 4.48 43.68ZM23.925 37.12C23.6583 37.12 23.4317 37.0667 23.245 36.96C23.0583 36.8533 22.965 36.6533 22.965 36.36C22.965 35.9867 23.0583 35.56 23.245 35.08C23.4317 34.6 23.645 34.1333 23.885 33.68C24.125 33.2 24.3383 32.8133 24.525 32.52C23.5917 33.5067 22.6183 34.44 21.605 35.32C21.0983 35.7467 20.5383 36.1467 19.925 36.52C19.3117 36.8933 18.6583 37.08 17.965 37.08C17.6983 37.08 17.5117 37 17.405 36.84C17.2983 36.6533 17.245 36.44 17.245 36.2C17.245 36.0667 17.2583 35.9733 17.285 35.92C17.4183 34.88 17.7517 33.8 18.285 32.68C18.8183 31.56 19.4717 30.5067 20.245 29.52C21.0183 28.5333 21.805 27.7333 22.605 27.12C23.5117 26.4267 24.5117 26.08 25.605 26.08H30.205C30.3383 26.08 30.405 26.1333 30.405 26.24C30.405 26.4533 30.285 26.56 30.045 26.56C29.7783 26.56 29.5117 26.7333 29.245 27.08C28.9783 27.4 28.7783 27.6667 28.645 27.88C28.4583 28.1733 28.165 28.6667 27.765 29.36C27.365 30.0533 26.9517 30.8133 26.525 31.64C26.125 32.44 25.7783 33.1867 25.485 33.88C25.1917 34.5733 25.045 35.08 25.045 35.4C25.045 35.7733 25.2317 35.96 25.605 35.96C26.005 35.96 26.4583 35.7733 26.965 35.4C27.4717 35.0267 27.9783 34.5733 28.485 34.04C29.0183 33.48 29.4983 32.9333 29.925 32.4C30.3783 31.84 30.7383 31.4 31.005 31.08C31.165 31.24 31.1517 31.4667 30.965 31.76C30.805 32.0267 30.6583 32.24 30.525 32.4C29.9917 33.0933 29.3783 33.8133 28.685 34.56C27.9917 35.28 27.2317 35.8933 26.405 36.4C25.605 36.88 24.7783 37.12 23.925 37.12ZM19.605 35.72C19.925 35.72 20.365 35.4933 20.925 35.04C21.5117 34.56 22.1383 33.9733 22.805 33.28C23.4717 32.56 24.0983 31.8133 24.685 31.04C25.2717 30.24 25.7517 29.52 26.125 28.88C26.525 28.2133 26.725 27.7067 26.725 27.36C26.725 27.0667 26.6317 26.8667 26.445 26.76C26.285 26.6533 26.0717 26.6 25.805 26.6C25.3783 26.6 24.9117 26.76 24.405 27.08C23.925 27.3733 23.5383 27.6667 23.245 27.96C22.925 28.2533 22.5383 28.72 22.085 29.36C21.6583 29.9733 21.2317 30.6533 20.805 31.4C20.3783 32.1467 20.0183 32.8667 19.725 33.56C19.4317 34.2533 19.285 34.8133 19.285 35.24C19.285 35.56 19.3917 35.72 19.605 35.72ZM26.1228 51C25.1095 51 24.1361 50.76 23.2028 50.28C22.2428 49.8267 21.5361 49.12 21.0828 48.16C20.9228 47.8133 20.8161 47.44 20.7628 47.04C20.7095 46.6667 20.6828 46.2933 20.6828 45.92V45.48C20.6828 45.2667 20.7095 45.0667 20.7628 44.88C20.8161 44.72 20.9495 44.64 21.1628 44.64C21.2161 44.64 21.2428 44.6667 21.2428 44.72C21.2428 44.88 21.2295 45.04 21.2028 45.2C21.1761 45.36 21.1628 45.5333 21.1628 45.72C21.1628 46.9467 21.5628 47.88 22.3628 48.52C23.1361 49.16 24.1095 49.48 25.2828 49.48C25.7628 49.48 26.2561 49.4267 26.7628 49.32C27.2695 49.2133 27.7495 49.0667 28.2028 48.88C29.8828 48.16 31.3361 47.1333 32.5628 45.8C33.8161 44.4933 34.9095 43.0133 35.8428 41.36C36.7761 39.7067 37.6161 38.0267 38.3628 36.32C38.7895 35.3067 39.1628 34.32 39.4828 33.36C39.8295 32.4 40.1361 31.5333 40.4028 30.76C40.1361 31.1333 39.7895 31.5867 39.3628 32.12C38.9361 32.6533 38.5095 33.1733 38.0828 33.68C37.6561 34.16 37.2828 34.5467 36.9628 34.84C36.2961 35.48 35.5761 36.0267 34.8028 36.48C34.0561 36.9067 33.2828 37.12 32.4828 37.12C32.2161 37.12 31.9895 37.0667 31.8028 36.96C31.6161 36.8533 31.5228 36.6533 31.5228 36.36C31.5228 35.9867 31.6161 35.5467 31.8028 35.04C32.0161 34.5333 32.2428 34.0267 32.4828 33.52C32.7228 33.0133 32.9228 32.6 33.0828 32.28C33.4028 31.6667 33.7095 31.0533 34.0028 30.44C34.2961 29.8267 34.5495 29.3067 34.7628 28.88C34.9761 28.48 35.0828 28.2133 35.0828 28.08C35.0828 27.8667 34.9228 27.8667 34.6028 28.08C34.3095 28.2933 34.0295 28.5067 33.7628 28.72C33.1761 29.28 32.5628 29.9467 31.9228 30.72C31.2828 31.4667 30.7895 32.0667 30.4428 32.52C30.3628 32.6267 30.2961 32.68 30.2428 32.68C30.1895 32.68 30.1628 32.6133 30.1628 32.48C30.1628 32.2667 30.2295 32.0667 30.3628 31.88C30.7361 31.3467 31.1761 30.76 31.6828 30.12C32.1895 29.48 32.7095 28.8667 33.2428 28.28C33.7495 27.7467 34.2695 27.2267 34.8028 26.72C35.3361 26.2133 36.0161 25.96 36.8428 25.96C37.4028 25.96 37.6828 26.1733 37.6828 26.6C37.6828 26.9733 37.5228 27.4 37.2028 27.88C37.0161 28.1733 36.7228 28.6667 36.3228 29.36C35.9228 30.0533 35.5095 30.8133 35.0828 31.64C34.6828 32.44 34.3361 33.1867 34.0428 33.88C33.7495 34.5733 33.6028 35.08 33.6028 35.4C33.6028 35.7733 33.7895 35.96 34.1628 35.96C34.4561 35.96 34.8161 35.8133 35.2428 35.52C35.6695 35.2 36.1095 34.8267 36.5628 34.4C37.3361 33.6533 38.0428 32.8267 38.6828 31.92C39.3495 31.0133 39.9228 30.1467 40.4028 29.32C40.4828 29.1867 40.6161 28.9467 40.8028 28.6C41.0161 28.2533 41.2295 27.92 41.4428 27.6C41.6828 27.28 41.8695 27.0933 42.0028 27.04C42.1361 26.9867 42.4028 26.84 42.8028 26.6C43.2028 26.36 43.6028 26.2 44.0028 26.12C44.3761 26.04 44.6561 26 44.8428 26C45.1361 26 45.2828 26.08 45.2828 26.24C45.2828 26.4533 45.1628 26.56 44.9228 26.56C44.6295 26.56 44.3628 26.64 44.1228 26.8C43.8828 26.9333 43.6961 27.1067 43.5628 27.32C43.3228 27.6667 42.9761 28.2933 42.5228 29.2C42.0961 30.1067 41.6161 31.16 41.0828 32.36C40.5761 33.5333 40.0695 34.7333 39.5628 35.96C39.0561 37.16 38.5895 38.2667 38.1628 39.28C37.5228 40.8 36.7895 42.28 35.9628 43.72C35.1361 45.1867 34.1628 46.4933 33.0428 47.64C31.9495 48.8133 30.6428 49.7333 29.1228 50.4C28.2161 50.8 27.2161 51 26.1228 51ZM51.4328 31.24C51.1128 31.2133 50.7661 31.1867 50.3928 31.16C50.0461 31.1067 49.6061 31.08 49.0728 31.08C48.4595 31.08 47.8861 31.0933 47.3528 31.12C46.8461 31.12 46.2861 31.1467 45.6728 31.2C45.6195 31.2 45.6461 31.1067 45.7528 30.92C45.8595 30.7333 45.9928 30.5467 46.1528 30.36C46.3395 30.1733 46.4728 30.0933 46.5528 30.12C46.8461 30.1733 47.2195 30.2133 47.6728 30.24C48.1528 30.24 48.6461 30.2533 49.1528 30.28C49.8461 30.28 50.4595 30.2667 50.9928 30.24C51.5261 30.2133 51.9661 30.1867 52.3128 30.16C52.3661 30.16 52.3395 30.2533 52.2328 30.44C52.1261 30.6267 51.9928 30.8133 51.8328 31C51.6728 31.16 51.5395 31.24 51.4328 31.24ZM52.9138 37.28C52.8871 37.3067 52.8604 37.32 52.8338 37.32C52.7538 37.32 52.7138 37.2 52.7138 36.96C52.7138 36.8 52.7538 36.64 52.8338 36.48C52.9404 36.2933 53.1271 36.1867 53.3938 36.16C54.1404 36.1067 54.8471 35.8533 55.5138 35.4C56.1804 34.9467 56.7671 34.4133 57.2738 33.8C57.7804 33.16 58.1404 32.56 58.3538 32L62.0338 22.8C62.5404 21.5467 63.1138 20.3333 63.7538 19.16C64.4204 17.9867 65.2604 17.0267 66.2738 16.28C67.3138 15.5333 68.6204 15.16 70.1938 15.16C70.8071 15.16 71.4204 15.24 72.0338 15.4C72.6738 15.5333 73.2071 15.76 73.6338 16.08C74.0604 16.4 74.2738 16.8533 74.2738 17.44C74.2738 17.52 74.2738 17.6 74.2738 17.68C74.2738 17.76 74.2604 17.84 74.2338 17.92C74.1538 18.3467 73.9138 18.7733 73.5138 19.2C73.1404 19.6267 72.8471 20.16 72.6338 20.8C72.6071 20.9867 72.4871 21.08 72.2738 21.08C72.0871 21.08 72.0471 20.96 72.1538 20.72C72.3671 20.4 72.5271 20.0267 72.6338 19.6C72.7671 19.1467 72.8338 18.6933 72.8338 18.24C72.8338 17.5467 72.6738 16.9333 72.3538 16.4C72.0338 15.8667 71.4871 15.6 70.7138 15.6C70.0204 15.6 69.3138 15.8 68.5938 16.2C67.8738 16.6 67.2471 17.2933 66.7138 18.28L59.3138 31.92C58.6204 33.2 57.9804 34.12 57.3938 34.68C56.8338 35.2133 56.3671 35.5467 55.9938 35.68H65.6338C66.9138 35.68 68.1004 35.64 69.1938 35.56C70.2871 35.48 70.9538 35.28 71.1938 34.96C71.4604 34.5867 71.5938 34.1867 71.5938 33.76C71.5938 33.0933 71.2338 32.6 70.5138 32.28C70.4338 32.2267 70.3938 32.1733 70.3938 32.12C70.3938 32.0667 70.4204 32.0133 70.4738 31.96C70.5538 31.9067 70.6471 31.9067 70.7538 31.96C70.9938 32.0667 71.2738 32.3067 71.5938 32.68C71.9404 33.0267 72.2604 33.4133 72.5538 33.84C72.8471 34.24 73.0338 34.56 73.1138 34.8C73.1938 35.04 73.2338 35.28 73.2338 35.52C73.2338 36.6133 72.2871 37.16 70.3938 37.16C68.9004 37.16 67.3004 37.1067 65.5938 37C63.8871 36.8933 62.1938 36.7733 60.5138 36.64C58.8604 36.5067 57.3004 36.4133 55.8338 36.36C55.2738 36.3067 54.7138 36.3867 54.1538 36.6C53.6204 36.7867 53.2071 37.0133 52.9138 37.28ZM78.0688 37.12C77.8021 37.12 77.5754 37.0667 77.3888 36.96C77.2021 36.8533 77.1087 36.6533 77.1087 36.36C77.1087 35.9867 77.2021 35.5467 77.3888 35.04C77.6021 34.5333 77.8288 34.0267 78.0688 33.52C78.3088 33.0133 78.5088 32.6 78.6688 32.28C78.9888 31.6667 79.2954 31.0533 79.5888 30.44C79.8821 29.8267 80.1354 29.3067 80.3487 28.88C80.5621 28.48 80.6688 28.2133 80.6688 28.08C80.6688 27.8667 80.5088 27.8667 80.1888 28.08C79.8954 28.2933 79.6154 28.5067 79.3488 28.72C78.7621 29.28 78.1488 29.9467 77.5088 30.72C76.8688 31.4667 76.3754 32.0667 76.0288 32.52C75.9488 32.6267 75.8821 32.68 75.8288 32.68C75.7754 32.68 75.7488 32.6133 75.7488 32.48C75.7488 32.2667 75.8154 32.0667 75.9488 31.88C76.3221 31.3467 76.7621 30.76 77.2688 30.12C77.7754 29.48 78.2954 28.8667 78.8288 28.28C79.3354 27.7467 79.8554 27.2267 80.3888 26.72C80.9221 26.2133 81.6021 25.96 82.4288 25.96C82.9888 25.96 83.2688 26.1733 83.2688 26.6C83.2688 26.9733 83.1088 27.4 82.7888 27.88C82.6021 28.1733 82.3088 28.6667 81.9088 29.36C81.5088 30.0533 81.0954 30.8133 80.6688 31.64C80.2688 32.44 79.9221 33.1867 79.6288 33.88C79.3354 34.5733 79.1888 35.08 79.1888 35.4C79.1888 35.7733 79.3754 35.96 79.7487 35.96C80.0421 35.96 80.4021 35.8133 80.8288 35.52C81.2554 35.2 81.6954 34.8267 82.1488 34.4C82.9754 33.6 83.7221 32.7333 84.3888 31.8C85.0821 30.84 85.6688 29.92 86.1488 29.04C86.6554 28.16 87.0554 27.44 87.3488 26.88C87.4021 26.7733 87.4554 26.6533 87.5088 26.52C87.5888 26.36 87.7088 26.2667 87.8688 26.24C88.0288 26.2133 88.3754 26.2 88.9088 26.2C89.4421 26.2 89.9354 26.0933 90.3888 25.88H90.4688C90.5488 25.88 90.5888 25.92 90.5888 26C90.5888 26.2133 90.4154 26.3733 90.0688 26.48C89.7488 26.5867 89.3754 26.9067 88.9488 27.44C88.5488 27.9733 88.1488 28.6267 87.7488 29.4C87.3488 30.1467 86.9888 30.92 86.6688 31.72C86.3488 32.52 86.1088 33.2533 85.9488 33.92C85.7888 34.5867 85.7488 35.08 85.8288 35.4C85.9354 35.7733 86.1221 35.96 86.3888 35.96C86.7354 35.96 87.2154 35.7467 87.8288 35.32C88.4688 34.8933 89.1221 34.3867 89.7888 33.8C90.4554 33.1867 91.0021 32.6267 91.4288 32.12C91.6154 31.9067 91.7888 31.6933 91.9488 31.48C92.1088 31.2667 92.2154 31.1333 92.2688 31.08C92.2954 31.1067 92.3221 31.16 92.3488 31.24C92.3754 31.2933 92.3888 31.3467 92.3888 31.4C92.3621 31.5867 92.2954 31.7733 92.1888 31.96C92.0821 32.12 91.9621 32.2667 91.8288 32.4C91.3221 33.0667 90.7088 33.7733 89.9888 34.52C89.2954 35.24 88.5354 35.8533 87.7088 36.36C86.9088 36.8667 86.0821 37.12 85.2288 37.12C84.9621 37.12 84.6554 37.0533 84.3088 36.92C83.9888 36.7867 83.8288 36.4933 83.8288 36.04C83.8288 35.6933 83.9221 35.2267 84.1088 34.64C84.2954 34.0267 84.4954 33.4267 84.7088 32.84C84.9488 32.2267 85.1488 31.7733 85.3088 31.48C84.9621 31.9867 84.5354 32.56 84.0288 33.2C83.5488 33.8133 83.0554 34.36 82.5488 34.84C81.8821 35.48 81.1621 36.0267 80.3888 36.48C79.6421 36.9067 78.8688 37.12 78.0688 37.12ZM91.7719 37.6C91.6652 37.6 91.6652 37.48 91.7719 37.24C91.9052 37 92.0252 36.7333 92.1319 36.44C92.2652 36.1467 92.3985 35.8267 92.5319 35.48C92.7985 34.84 93.0919 34.12 93.4119 33.32C93.7319 32.52 94.0385 31.7467 94.3319 31C94.6252 30.2267 94.8785 29.5733 95.0919 29.04C95.3319 28.48 95.4919 28.12 95.5719 27.96C95.1985 28.36 94.7452 28.8667 94.2119 29.48C93.7052 30.0667 93.2252 30.64 92.7719 31.2C92.3185 31.76 91.9719 32.2 91.7319 32.52C91.6519 32.6267 91.5852 32.68 91.5319 32.68C91.4785 32.68 91.4519 32.6133 91.4519 32.48C91.4519 32.2667 91.5185 32.0667 91.6519 31.88C92.1585 31.24 92.7185 30.52 93.3319 29.72C93.9719 28.92 94.5452 28.1867 95.0519 27.52C95.5585 26.8267 95.8785 26.3733 96.0119 26.16C96.3052 26.1067 96.7319 26.0267 97.2919 25.92C97.8785 25.8133 98.2785 25.6667 98.4919 25.48C98.5719 25.4 98.6519 25.36 98.7319 25.36C98.7852 25.36 98.8119 25.4133 98.8119 25.52C98.8385 25.6 98.8119 25.6933 98.7319 25.8C98.5719 25.9867 98.2919 26.4267 97.8919 27.12C97.5185 27.7867 97.1052 28.5333 96.6519 29.36C96.2252 30.1867 95.8252 30.9333 95.4519 31.6C95.7719 31.1733 96.1185 30.76 96.4919 30.36C96.8652 29.96 97.2252 29.5733 97.5719 29.2C97.8919 28.88 98.3319 28.48 98.8919 28C99.4519 27.52 100.039 27.08 100.652 26.68C101.265 26.28 101.799 26.0533 102.252 26C102.359 25.9733 102.452 25.96 102.532 25.96C102.639 25.96 102.719 25.96 102.772 25.96C103.359 25.96 103.652 26.1733 103.652 26.6C103.652 26.92 103.479 27.3467 103.132 27.88C102.945 28.1733 102.652 28.6667 102.252 29.36C101.879 30.0267 101.492 30.76 101.092 31.56C100.719 32.3333 100.385 33.0667 100.092 33.76C99.8252 34.4267 99.6919 34.92 99.6919 35.24C99.6919 35.6133 99.8785 35.8 100.252 35.8C100.705 35.8 101.199 35.5733 101.732 35.12C102.292 34.6667 102.892 34.0933 103.532 33.4C104.172 32.68 104.812 31.92 105.452 31.12C105.505 31.1733 105.532 31.2667 105.532 31.4C105.532 31.5867 105.465 31.7733 105.332 31.96C105.225 32.12 105.119 32.2667 105.012 32.4C104.745 32.7467 104.385 33.1867 103.932 33.72C103.505 34.2267 103.065 34.7333 102.612 35.24C102.159 35.72 101.745 36.1067 101.372 36.4C101.105 36.5867 100.759 36.7867 100.332 37C99.9052 37.2133 99.4785 37.32 99.0519 37.32C98.5719 37.32 98.2385 37.2 98.0519 36.96C97.8652 36.6933 97.7719 36.3733 97.7719 36C97.7719 35.5733 97.8519 35.12 98.0119 34.64C98.1719 34.16 98.3452 33.7067 98.5319 33.28C98.7452 32.8267 98.9052 32.4933 99.0119 32.28C99.4919 31.3467 99.9319 30.4667 100.332 29.64C100.732 28.8133 101.012 28.2267 101.172 27.88C101.252 27.72 101.292 27.5867 101.292 27.48C101.292 27.2933 101.145 27.28 100.852 27.44C100.559 27.6 100.199 27.84 99.7719 28.16C99.3719 28.48 98.9985 28.8 98.6519 29.12C98.3052 29.4133 98.0785 29.6133 97.9719 29.72C96.9852 30.76 96.1185 31.92 95.3719 33.2C94.6519 34.4533 94.0385 35.7467 93.5319 37.08C93.1852 37.1067 92.8385 37.2 92.4919 37.36C92.1452 37.52 91.9052 37.6 91.7719 37.6ZM107.015 37.32C105.922 37.32 105.162 37.1067 104.735 36.68C104.308 36.2533 104.095 35.7333 104.095 35.12C104.095 34.3467 104.295 33.52 104.695 32.64C105.122 31.76 105.522 31.0133 105.895 30.4C106.322 29.76 106.895 29.0933 107.615 28.4C108.335 27.7067 109.122 27.12 109.975 26.64C110.828 26.16 111.655 25.92 112.455 25.92C113.148 25.92 113.628 26.0933 113.895 26.44C114.162 26.76 114.295 27.1467 114.295 27.6C114.295 28.4267 114.042 29.1067 113.535 29.64C113.055 30.1733 112.455 30.6133 111.735 30.96C111.015 31.28 110.322 31.5467 109.655 31.76C109.255 31.8667 108.788 31.9733 108.255 32.08C107.722 32.1867 107.215 32.24 106.735 32.24C106.548 32.72 106.402 33.1867 106.295 33.64C106.188 34.0933 106.135 34.5067 106.135 34.88C106.135 35.3333 106.242 35.7067 106.455 36C106.695 36.2933 107.082 36.44 107.615 36.44C107.828 36.44 108.082 36.4133 108.375 36.36C108.668 36.3067 108.988 36.2267 109.335 36.12C110.135 35.8533 110.922 35.4267 111.695 34.84C112.468 34.2533 113.175 33.6267 113.815 32.96C114.482 32.2667 114.988 31.6933 115.335 31.24C115.415 31.32 115.455 31.4133 115.455 31.52C115.455 31.6533 115.362 31.8667 115.175 32.16C114.642 32.9067 113.948 33.68 113.095 34.48C112.242 35.28 111.295 35.96 110.255 36.52C109.215 37.0533 108.135 37.32 107.015 37.32ZM107.055 31.44C107.402 31.4667 107.788 31.4667 108.215 31.44C108.668 31.3867 109.108 31.2933 109.535 31.16C110.628 30.84 111.415 30.3333 111.895 29.64C112.402 28.92 112.655 28.28 112.655 27.72C112.655 27.4 112.588 27.1333 112.455 26.92C112.322 26.7067 112.108 26.6 111.815 26.6C111.042 26.6 110.348 26.8933 109.735 27.48C109.122 28.04 108.588 28.6933 108.135 29.44C107.682 30.1867 107.322 30.8533 107.055 31.44Z" fill="#4169E1"/>
<path fill-rule="evenodd" clip-rule="evenodd" d="M98.9348 16.748C107.606 7.99067 121.719 7.92129 130.477 16.5929C133.703 19.7873 135.748 23.7219 136.611 27.8556L133.767 28.3801L134.063 24.3388L131.757 27.6749L125.783 20.7736L127.438 29.7504L126.891 29.7113C126.407 25.9819 124.723 22.3792 121.843 19.527C114.965 12.7164 103.876 12.7709 97.0656 19.6488C96.2604 20.4619 95.5485 21.3408 94.9296 22.2591C95.9544 20.2644 97.285 18.4141 98.9348 16.748ZM126.926 30.0057C126.915 29.9075 126.903 29.8094 126.891 29.7113L123.401 29.4625L126.733 31.7603L119.832 37.7349L126.442 36.5157C125.68 39.3638 124.188 42.0584 121.965 44.3041C115.154 51.182 104.065 51.2365 97.1874 44.4259C95.5479 42.8025 94.2918 40.9251 93.433 38.9132C94.458 42.3569 96.3442 45.5973 99.0767 48.3031C107.834 56.9747 121.947 56.9053 130.619 48.148C132.525 46.2226 134.01 44.0376 135.073 41.7081L136.781 43.6816L135.985 39.3659C136.467 37.888 136.79 36.3701 136.955 34.8387L139.167 35.0006L137.056 33.5395C137.088 32.9057 137.092 32.2709 137.069 31.6368L142.744 26.7244L136.611 27.8556C136.632 27.9565 136.652 28.0575 136.672 28.1587L133.735 28.6987L133.653 29.8715L134.4 30.7341L134.411 30.7776L134.607 31.8562L135.57 32.5174L137.052 31.2357C137.059 31.3694 137.065 31.5031 137.069 31.6368L135.843 32.699L137.056 33.5395C137.051 33.6526 137.044 33.7657 137.037 33.8788L135.603 32.8922L134.908 33.4998L135.071 34.4085L136.984 34.5469C136.975 34.6442 136.965 34.7415 136.955 34.8387L135.126 34.7048L135.985 39.3659C135.921 39.5617 135.855 39.7568 135.786 39.9512L134.811 34.6802L133.646 34.5949L132.783 35.3418L132.74 35.3529L131.661 35.5487L131 36.5114L135.217 41.3866C135.17 41.4941 135.122 41.6013 135.073 41.7081L130.807 36.7802L128.513 40.1205L128.809 36.0792L126.442 36.5157C126.471 36.404 126.5 36.2919 126.528 36.1797L128.837 35.7526L128.923 34.5878L128.176 33.7252L128.165 33.6817L127.969 32.6031L127.037 31.9632C127.037 31.8085 127.035 31.6538 127.031 31.4992L127.656 30.9554L127.493 30.0467L126.926 30.0057ZM126.926 30.0057C126.982 30.5021 127.017 31.0004 127.031 31.4992L126.953 31.5668L124.435 29.8254L126.926 30.0057ZM127.037 31.9632L127.006 31.9419L120.904 37.2198L126.528 36.1797C126.868 34.7962 127.038 33.3796 127.037 31.9632ZM135.217 41.3866C135.423 40.9135 135.613 40.4347 135.786 39.9512L136.278 42.6139L135.217 41.3866ZM136.984 34.5469C137.005 34.3245 137.023 34.1017 137.037 33.8788L138.129 34.6298L136.984 34.5469ZM137.052 31.2357C136.996 30.2042 136.87 29.1758 136.672 28.1587L141.672 27.2395L137.052 31.2357ZM132.572 34.2314L133.513 34.2974L134.575 33.3961L134.321 32.0133L133.545 31.4771L133.431 32.9881L132.572 34.2314ZM134.756 34.3838L134.64 33.7359L133.957 34.328L134.756 34.3838ZM129.216 34.4467L130.137 35.5091L131.505 35.2429L132.041 34.4673L130.533 34.361L129.282 33.5061L129.216 34.4467ZM130.803 36.2838L131.258 35.6251L130.369 35.7885L130.803 36.2838ZM129.134 35.6982L129.782 35.5823L129.194 34.8876L129.134 35.6982ZM128.335 32.857L128.469 33.584L128.953 34.1431L129.009 33.3246L128.335 32.857ZM129.059 30.154L128.005 31.0711L128.255 32.446L129.03 32.9822L129.145 31.4712L130 30.2199L129.059 30.154ZM127.226 31.7483L127.892 32.2L127.721 31.3149L127.226 31.7483ZM127.819 30.0754L127.935 30.7234L128.618 30.1313L127.819 30.0754ZM133.356 30.0047L132.435 28.9423L131.063 29.2005L130.527 29.9761L132.038 30.0904L133.29 30.9452L133.356 30.0047ZM131.773 28.1755L131.317 28.8342L132.206 28.6708L131.773 28.1755ZM133.45 28.7573L132.794 28.877L133.39 29.5679L133.45 28.7573ZM134.241 31.6023L134.106 30.8753L133.622 30.3162L133.566 31.1347L134.241 31.6023ZM133.145 32.8812L133.265 31.2797L131.939 30.3725L130.338 30.2528L129.431 31.5781L129.311 33.1796L130.636 34.0868L132.238 34.2065L133.145 32.8812ZM129.374 29.895L130.193 29.9511L130.66 29.2769L129.933 29.4113L129.374 29.895ZM133.205 34.5723L132.383 34.5082L131.919 35.1903L132.646 35.0559L133.205 34.5723ZM135.35 32.7109L134.679 32.2513L134.847 33.1482L135.35 32.7109ZM133.471 28.4346L133.692 25.377L131.947 27.9064L132.554 28.6014L133.471 28.4346ZM131.576 27.9479L126.298 21.8454L127.765 29.7791L128.93 29.8644L129.792 29.1175L129.836 29.1064L130.914 28.9106L131.576 27.9479ZM129.105 36.0247L128.884 39.0823L130.629 36.5529L130.021 35.8579L129.105 36.0247Z" fill="#4169E1"/>
</svg>
