<svg width="63" height="67" viewBox="0 0 63 67" fill="none" xmlns="http://www.w3.org/2000/svg">
<path d="M0.150999 19.2327C4.85305 12.2173 12.849 7.60327 21.9263 7.60327C36.3844 7.60327 48.1018 19.3207 48.1018 33.7788C48.1018 48.237 36.3844 59.9544 21.9263 59.9544C12.849 59.9544 4.85305 55.3404 0.151 48.325C5.53196 59.3007 16.8219 66.8692 29.8845 66.8692C48.1647 66.8692 62.9749 52.059 62.9749 33.7788C62.9749 15.4987 48.1647 0.688492 29.8845 0.688492C16.8219 0.675921 5.53195 8.24446 0.150999 19.2327Z" fill="#4169E1"/>
<path fill-rule="evenodd" clip-rule="evenodd" d="M24.8018 39.2768L21.5 33L18.1982 39.2768C17.965 39.7355 17.6273 40.133 17.2125 40.4375C16.7956 40.7435 16.3133 40.9483 15.8036 41.0357L9 42.3696L13.75 48.05C14.3996 48.7619 14.7061 49.7219 14.5893 50.6786L13.6857 58L19.95 54.9643C20.4333 54.7302 20.9631 54.6082 21.5 54.6071C22.0038 54.6087 22.4998 54.7312 22.9464 54.9643L29.3571 57.8125L28.4536 50.5786C28.3394 49.624 28.6464 48.6671 29.2946 47.9571L34 42.3696L27.1964 41.0357C26.6861 40.9486 26.2031 40.7438 25.7857 40.4375C25.3715 40.1328 25.0345 39.7353 24.8018 39.2768Z" fill="#F2C94C" stroke="black" stroke-width="1.5" stroke-linecap="round" stroke-linejoin="round"/>
</svg>
