<svg width="59" height="53" viewBox="0 0 59 53" fill="none" xmlns="http://www.w3.org/2000/svg">
<path fill-rule="evenodd" clip-rule="evenodd" d="M13.1427 3.52982C25.7241 -3.73407 41.7937 0.571755 49.0576 13.1532C52.7475 19.5442 53.447 26.8381 51.593 33.4206L48.2145 32.5016L50.5045 28.5116L46.5145 30.8016L43.7845 20.7916L41.0645 30.7916L40.1627 30.2763C41.8157 24.9654 41.33 19.0063 38.3283 13.8071C32.6233 3.9258 19.9972 0.542647 10.1159 6.24762C8.94775 6.92205 7.8651 7.70031 6.87603 8.55222C8.66109 6.60242 10.749 4.91184 13.1427 3.52982ZM40.0598 30.5977C40.095 30.4908 40.1293 30.3837 40.1627 30.2763L37.0745 28.5116L39.3436 32.4652C39.3366 32.4812 39.3295 32.4971 39.3225 32.5131L29.3545 35.2216L36.478 37.1592C34.9323 39.0621 33.019 40.7203 30.7688 42.0195C20.8875 47.7244 8.26138 44.3413 2.55641 34.46C1.1965 32.1046 0.351473 29.5795 0 27.0249C0.0956505 31.2592 1.2337 35.5301 3.50021 39.4558C10.7641 52.0372 26.8337 56.343 39.4151 49.0791C40.6801 48.3488 41.8616 47.5294 42.9562 46.6333L43.7745 49.6416L45.1371 44.632C46.3277 43.4083 47.3842 42.0826 48.3001 40.6779L50.4845 41.9316L49.0632 39.4334C49.44 38.7787 49.7877 38.1093 50.1058 37.4272L58.2145 35.2216L51.593 33.4206C51.5612 33.5333 51.5288 33.6457 51.4955 33.7579L48.0245 32.8116L47.3645 33.9716L47.7045 35.2216L47.6945 35.2716L47.3645 36.4716L48.0245 37.6216L50.2985 37.0042C50.2355 37.1458 50.1713 37.2867 50.1058 37.4272L48.2145 37.9416L49.0632 39.4334C49.0007 39.542 48.9374 39.6501 48.8733 39.7579L47.8845 38.0316L46.8745 38.3116L46.5945 39.3216L48.4783 40.4008C48.4195 40.4935 48.3601 40.5859 48.3001 40.6779L46.4945 39.6416L45.1371 44.632C44.9764 44.7971 44.8133 44.9604 44.6478 45.1218L46.1845 39.4616L45.0345 38.8016L43.7845 39.1416L43.7345 39.1316L42.5345 38.8016L41.3845 39.4616L43.2624 46.3787C43.1611 46.4643 43.059 46.5491 42.9562 46.6333L41.0545 39.6416L37.0645 41.9316L39.3545 37.9416L36.478 37.1592C36.5598 37.0585 36.6407 36.957 36.7204 36.8549L39.5445 37.6216L40.2045 36.4716L39.8645 35.2216L39.8745 35.1716L40.2045 33.9716L39.5445 32.8216L39.1303 32.9341C39.1959 32.7944 39.26 32.6541 39.3225 32.5131L39.3645 32.5016L39.3436 32.4652C39.3965 32.345 39.4482 32.2243 39.4988 32.1032L39.6745 32.4116L40.6945 32.1316L40.9745 31.1216L40.0598 30.5977ZM40.0598 30.5977C39.8924 31.1062 39.7053 31.6084 39.4988 32.1032L37.9545 29.3916L40.0598 30.5977ZM39.1303 32.9341C38.4802 34.3174 37.6743 35.634 36.7204 36.8549L30.7045 35.2216L39.1303 32.9341ZM43.2624 46.3787C43.7415 45.9743 44.2034 45.5549 44.6478 45.1218L43.7845 48.3016L43.2624 46.3787ZM48.4783 40.4008C48.6132 40.1882 48.7449 39.9739 48.8733 39.7579L49.6145 41.0516L48.4783 40.4008ZM50.2985 37.0042C50.7685 35.9483 51.1682 34.8636 51.4955 33.7579L56.8645 35.2216L50.2985 37.0042ZM44.1145 37.9016L45.0445 38.4316L46.5845 38.0216L46.9945 36.4916L46.4645 35.5616L45.6045 37.0516L44.1145 37.9016ZM46.2745 39.1316L46.4745 38.4116L45.4845 38.6816L46.2745 39.1316ZM40.5745 36.4816L40.9945 38.0216L42.5245 38.4216L43.4545 37.8916L41.9645 37.0416L41.1045 35.5516L40.5745 36.4816ZM41.3045 39.1316L42.0945 38.6816L41.1045 38.4116L41.3045 39.1316ZM39.8745 37.7116L40.5945 37.9116L40.3345 36.9116L39.8745 37.7116ZM40.4545 34.4116L40.2345 35.2216L40.4545 36.0316L40.9145 35.2216L40.4545 34.4116ZM42.5245 32.0116L40.9945 32.4316L40.5745 33.9516L41.1045 34.8816L41.9645 33.3916L43.4545 32.5416L42.5245 32.0116ZM39.8645 32.7416L40.3245 33.5316L40.5845 32.5416L39.8645 32.7416ZM41.3045 31.3116L41.1045 32.0316L42.0945 31.7616L41.3045 31.3116ZM47.0045 33.9716L46.5845 32.4316L45.0545 32.0316L44.1245 32.5616L45.6145 33.4116L46.4745 34.9016L47.0045 33.9716ZM46.2745 31.3116L45.4845 31.7616L46.4745 32.0316L46.2745 31.3116ZM47.7045 32.7316L46.9745 32.5316L47.2445 33.5316L47.7045 32.7316ZM47.1145 36.0316L47.3345 35.2216L47.1145 34.4116L46.6545 35.2216L47.1145 36.0316ZM45.3645 36.8016L46.2745 35.2216L45.3645 33.6416L43.7845 32.7316L42.2045 33.6416L41.2945 35.2216L42.2045 36.8016L43.7845 37.7116L45.3645 36.8016ZM42.9745 31.8916L43.7845 32.3516L44.5945 31.8916L43.7845 31.6716L42.9745 31.8916ZM44.5945 38.5616L43.7845 38.0916L42.9745 38.5616L43.7845 38.7816L44.5945 38.5616ZM47.7045 37.7216L47.2445 36.9216L46.9745 37.9216L47.7045 37.7216ZM47.8845 32.4116L49.6145 29.3916L46.5845 31.1216L46.8645 32.1316L47.8845 32.4116ZM46.1845 30.9816L43.7845 22.1416L41.3845 30.9816L42.5345 31.6416L43.7845 31.3016L43.8345 31.3116L45.0345 31.6416L46.1845 30.9816ZM39.6845 38.0316L37.9545 41.0516L40.9845 39.3216L40.7045 38.3116L39.6845 38.0316Z" fill="#4169E1"/>
</svg>
