<svg width="78" height="20" viewBox="0 0 78 20" fill="none" xmlns="http://www.w3.org/2000/svg">
<path d="M11.45 0.565999C11.6407 0.565999 11.7727 0.602666 11.846 0.675999C11.9193 0.734666 11.956 0.851999 11.956 1.028V1.644C11.956 1.82 11.9193 1.94467 11.846 2.018C11.7727 2.07667 11.6407 2.106 11.45 2.106H8.942V9.366C8.942 11.698 8.51667 13.634 7.666 15.174C7.82733 15.5553 8.04733 15.7973 8.326 15.9C8.61933 16.0027 8.942 15.9953 9.294 15.878C9.514 15.8047 9.712 15.7533 9.888 15.724C10.0787 15.68 10.2693 15.658 10.46 15.658C11.032 15.658 11.494 15.834 11.846 16.186C12.2127 16.5233 12.396 16.934 12.396 17.418C12.396 18.0193 12.2127 18.4887 11.846 18.826C11.4793 19.178 10.9367 19.354 10.218 19.354C9.83667 19.354 9.46267 19.2807 9.096 19.134C8.72933 19.002 8.392 18.8113 8.084 18.562C7.776 18.3127 7.49733 18.0193 7.248 17.682C7.01333 17.3447 6.82267 16.978 6.676 16.582C5.50267 17.902 3.91133 18.8187 1.902 19.332C1.57933 19.42 1.35933 19.332 1.242 19.068L1.066 18.672C0.948667 18.4227 1.05867 18.1953 1.396 17.99C1.95333 17.638 2.43 17.2273 2.826 16.758C3.222 16.2887 3.54467 15.724 3.794 15.064C4.058 14.3893 4.24867 13.59 4.366 12.666C4.48333 11.7273 4.542 10.62 4.542 9.344V2.106H2.034C1.84333 2.106 1.71133 2.07667 1.638 2.018C1.56467 1.94467 1.528 1.82 1.528 1.644V1.028C1.528 0.851999 1.56467 0.734666 1.638 0.675999C1.71133 0.602666 1.84333 0.565999 2.034 0.565999H11.45ZM16.818 18.342C16.818 18.782 16.73 19.0973 16.554 19.288C16.378 19.4787 16.0553 19.574 15.586 19.574H14.2C13.7307 19.574 13.408 19.4787 13.232 19.288C13.056 19.0973 12.968 18.782 12.968 18.342V9.96H10.658C10.4527 9.96 10.3133 9.92333 10.24 9.85C10.1813 9.77667 10.152 9.65933 10.152 9.498V8.882C10.152 8.72067 10.1813 8.60333 10.24 8.53C10.3133 8.45667 10.4527 8.42 10.658 8.42H12.968V1.578C12.968 1.138 13.056 0.822666 13.232 0.632C13.408 0.441333 13.7307 0.345999 14.2 0.345999H15.586C16.0553 0.345999 16.378 0.441333 16.554 0.632C16.73 0.822666 16.818 1.138 16.818 1.578V18.342ZM21.724 18.342C21.724 18.782 21.636 19.0973 21.46 19.288C21.284 19.4787 20.9613 19.574 20.492 19.574H19.106C18.6367 19.574 18.314 19.4787 18.138 19.288C17.962 19.0973 17.874 18.782 17.874 18.342V1.578C17.874 1.138 17.962 0.822666 18.138 0.632C18.314 0.441333 18.6367 0.345999 19.106 0.345999H20.492C20.9613 0.345999 21.284 0.441333 21.46 0.632C21.636 0.822666 21.724 1.138 21.724 1.578V18.342ZM43.3668 18.342C43.3668 18.782 43.2788 19.0973 43.1028 19.288C42.9268 19.4787 42.6042 19.574 42.1348 19.574H40.1108C39.6415 19.574 39.3188 19.4787 39.1428 19.288C38.9668 19.0973 38.8788 18.782 38.8788 18.342V1.578C38.8788 1.138 38.9668 0.822666 39.1428 0.632C39.3188 0.441333 39.6415 0.345999 40.1108 0.345999H42.1348C42.6042 0.345999 42.9268 0.441333 43.1028 0.632C43.2788 0.822666 43.3668 1.138 43.3668 1.578V18.342ZM28.4948 9.96C28.4948 11.7787 28.5388 13.2233 28.6268 14.294C28.7148 15.35 28.8395 16.1567 29.0008 16.714C29.1768 17.2713 29.3895 17.6307 29.6388 17.792C29.8882 17.9533 30.1815 18.034 30.5188 18.034C30.8415 18.034 31.1275 17.9533 31.3768 17.792C31.6408 17.6307 31.8535 17.2713 32.0148 16.714C32.1762 16.1567 32.3008 15.35 32.3888 14.294C32.4768 13.2233 32.5208 11.7787 32.5208 9.96C32.5208 8.14133 32.4768 6.704 32.3888 5.648C32.3008 4.57733 32.1762 3.76333 32.0148 3.206C31.8535 2.64867 31.6408 2.28933 31.3768 2.128C31.1275 1.96667 30.8415 1.886 30.5188 1.886C30.1815 1.886 29.8882 1.96667 29.6388 2.128C29.3895 2.28933 29.1768 2.64867 29.0008 3.206C28.8395 3.76333 28.7148 4.57733 28.6268 5.648C28.5388 6.704 28.4948 8.14133 28.4948 9.96ZM36.9208 9.96C36.9208 11.6907 36.7815 13.1647 36.5028 14.382C36.2242 15.5993 35.8135 16.5893 35.2708 17.352C34.7282 18.1293 34.0535 18.694 33.2468 19.046C32.4548 19.398 31.5455 19.574 30.5188 19.574C29.4775 19.574 28.5608 19.398 27.7688 19.046C26.9768 18.694 26.3022 18.1293 25.7448 17.352C25.2022 16.5893 24.7915 15.5993 24.5128 14.382C24.2342 13.1647 24.0948 11.6907 24.0948 9.96C24.0948 8.22933 24.2342 6.75533 24.5128 5.538C24.7915 4.32067 25.2022 3.33067 25.7448 2.568C26.3022 1.79067 26.9768 1.226 27.7688 0.873999C28.5608 0.521999 29.4775 0.345999 30.5188 0.345999C31.5455 0.345999 32.4548 0.521999 33.2468 0.873999C34.0535 1.226 34.7282 1.79067 35.2708 2.568C35.8135 3.33067 36.2242 4.32067 36.5028 5.538C36.7815 6.75533 36.9208 8.22933 36.9208 9.96ZM55.8408 10.026C56.0462 10.026 56.1782 10.0627 56.2368 10.136C56.3102 10.2093 56.3468 10.3267 56.3468 10.488V11.104C56.3468 11.2653 56.3102 11.3827 56.2368 11.456C56.1782 11.5293 56.0462 11.566 55.8408 11.566H46.8208C46.6155 11.566 46.4762 11.5293 46.4028 11.456C46.3442 11.3827 46.3148 11.2653 46.3148 11.104V10.488C46.3148 10.3267 46.3442 10.2093 46.4028 10.136C46.4762 10.0627 46.6155 10.026 46.8208 10.026H55.8408ZM63.8415 17.22C63.8415 17.5573 63.9148 17.77 64.0615 17.858C64.2081 17.9607 64.4281 18.012 64.7215 18.012H77.0855C77.2908 18.012 77.4228 18.0487 77.4815 18.122C77.5548 18.1953 77.5915 18.3127 77.5915 18.474V19.09C77.5915 19.2513 77.5548 19.3687 77.4815 19.442C77.4228 19.5153 77.2908 19.552 77.0855 19.552H62.1255C61.0841 19.552 60.3581 19.3467 59.9475 18.936C59.5515 18.54 59.3535 17.88 59.3535 16.956V15.174C59.3535 14.734 59.4415 14.4187 59.6175 14.228C59.7935 14.0373 60.1161 13.942 60.5855 13.942H62.6095C62.7415 13.942 62.8808 13.9567 63.0275 13.986V13.722V12.204H58.5615C58.3708 12.204 58.2388 12.1747 58.1655 12.116C58.0921 12.0427 58.0555 11.918 58.0555 11.742V11.126C58.0555 10.95 58.0921 10.8327 58.1655 10.774C58.2388 10.7007 58.3708 10.664 58.5615 10.664H71.7615C71.9521 10.664 72.0841 10.7007 72.1575 10.774C72.2308 10.8327 72.2675 10.95 72.2675 11.126V11.742C72.2675 11.918 72.2308 12.0427 72.1575 12.116C72.0841 12.1747 71.9521 12.204 71.7615 12.204H67.5155V13.722C67.5155 14.162 67.4275 14.4773 67.2515 14.668C67.0755 14.8587 66.7528 14.954 66.2835 14.954H64.2595C64.1715 14.954 64.0908 14.954 64.0175 14.954C63.9588 14.954 63.8928 14.9467 63.8195 14.932C63.8341 14.976 63.8415 15.0567 63.8415 15.174V17.22ZM64.3695 5.406C64.1201 5.406 63.9441 5.45 63.8415 5.538C63.7535 5.626 63.7095 5.77267 63.7095 5.978V6.638C63.7095 7.09267 63.9955 7.32 64.5675 7.32C65.0808 7.32 65.6088 7.31267 66.1515 7.298C66.6941 7.26867 67.2221 7.232 67.7355 7.188C68.2635 7.144 68.7621 7.09267 69.2315 7.034C69.7008 6.96067 70.1188 6.88733 70.4855 6.814C70.6908 6.77 70.8375 6.76267 70.9255 6.792C71.0135 6.82133 71.0795 6.90933 71.1235 7.056L71.2115 7.32C71.3141 7.628 71.2481 7.826 71.0135 7.914C69.9575 8.33933 68.6375 8.684 67.0535 8.948C65.4841 9.212 63.7975 9.344 61.9935 9.344C61.0548 9.344 60.3581 9.16067 59.9035 8.794C59.4488 8.41267 59.2215 7.81133 59.2215 6.99V5.098C59.2215 4.658 59.3095 4.34267 59.4855 4.152C59.6615 3.96133 59.9841 3.866 60.4535 3.866H65.6675C65.9168 3.866 66.0855 3.822 66.1735 3.734C66.2761 3.646 66.3275 3.49933 66.3275 3.294V2.678C66.3275 2.47267 66.2761 2.326 66.1735 2.238C66.0855 2.15 65.9168 2.106 65.6675 2.106H59.9475C59.7568 2.106 59.6248 2.07667 59.5515 2.018C59.4781 1.94467 59.4415 1.82 59.4415 1.644V1.028C59.4415 0.851999 59.4781 0.734666 59.5515 0.675999C59.6248 0.602666 59.7568 0.565999 59.9475 0.565999H69.6055C70.0601 0.565999 70.3755 0.661333 70.5515 0.851999C70.7275 1.028 70.8155 1.34333 70.8155 1.798V4.174C70.8155 4.62867 70.7275 4.95133 70.5515 5.142C70.3755 5.318 70.0601 5.406 69.6055 5.406H64.3695ZM77.5915 13.26C77.5915 13.7 77.5035 14.0153 77.3275 14.206C77.1515 14.3967 76.8288 14.492 76.3595 14.492H74.3355C73.8661 14.492 73.5435 14.3967 73.3675 14.206C73.1915 14.0153 73.1035 13.7 73.1035 13.26V1.578C73.1035 1.138 73.1915 0.822666 73.3675 0.632C73.5435 0.441333 73.8661 0.345999 74.3355 0.345999H76.3595C76.8288 0.345999 77.1515 0.441333 77.3275 0.632C77.5035 0.822666 77.5915 1.138 77.5915 1.578V13.26Z" fill="#4169E1"/>
</svg>
